<svg xmlns="http://www.w3.org/2000/svg">
<defs>
<font id="UTMPenumbraBold" horiz-adv-x="1816" >
  <font-face 
    font-family="UTM Penumbra"
    font-weight="700"
    font-stretch="normal"
    units-per-em="2048"
    panose-1="2 4 6 3 5 5 6 2 2 4"
    ascent="1638"
    descent="-410"
    x-height="1597"
    cap-height="1597"
    bbox="-38 -512 4942 2493"
    underline-thickness="109"
    underline-position="-359"
    unicode-range="U+0020-2026"
  />
<missing-glyph horiz-adv-x="5040" 
d="M3351 2045h10q37 -10 37 -52q0 -12 -32 -57h-28q0 24 28 54l2 10q-5 13 -10 15h-9q-8 0 -10 -19h-30q6 49 42 49zM2019 2016l29 -31q0 -16 -40 -30h-19l-59 12l-11 -12l-28 25q11 29 43 29h11l42 -11h2q10 0 30 18zM468 1980h142v-60h-94v-75h89v-59h-89v-129l-5 -5h-49
v323zM1155 1980h43l6 -5v-78h30v-52h-30v-188l-6 -5h-49v193h-25v52h25v78zM1621 1980h42l4 -5v-94h3q23 24 54 24h2q58 0 83 -71l2 -39v-143h-52v115q0 80 -42 80h-7q-43 0 -43 -86v-109h-51v323zM2200 1980h49l5 -5v-222q10 -51 45 -51q44 7 44 59v214l5 5h49v-216
q0 -85 -66 -112q-15 -8 -35 -8q-47 0 -82 55q-14 24 -14 57v224zM2435 1980h159v-60h-56v-268h-53v268h-55v55zM2621 1980h71q7 -4 83 -251h2l80 251h73v-328h-54v242h-2l-74 -242h-44q-4 0 -58 182l-19 60h-3v-242h-55v328zM3760 1980h52v-328h-45l-5 5v11l3 2l-3 14
q-29 -40 -78 -40q-67 0 -100 91l-5 39v3q0 94 92 125l23 3q35 0 63 -32h3v107zM2057 1928h36l4 -6v-49h-45v-221h-48v23q-23 -31 -59 -31q-89 14 -89 97v156h51v-104q0 -79 26 -86l18 -5h6q26 0 39 36l3 26v133h53v25zM3476 1928v-55h-31v-221h-47v25h-2q-15 -33 -57 -33
q-68 0 -86 78l-3 29v146h52v-120q0 -50 19 -68l21 -7h9q42 0 42 69v126h27q4 0 4 28l3 3h49zM758 1905q68 0 103 -77q9 -18 12 -54q0 -88 -90 -127l-32 -3q-63 0 -101 73q-12 22 -12 52v10q0 94 101 126h19zM1011 1905h3q74 0 83 -101v-152h-51v119q0 76 -42 76h-5
q-44 0 -44 -76v-119h-52v245h46v-21q30 29 62 29zM1466 1905h7q72 0 105 -89h-60q-16 31 -42 31h-17q-53 -14 -53 -61l-3 -15q12 -69 61 -69h9q22 0 47 27h40l2 3h3l2 -3l2 3l3 -3l2 3l2 -7q-33 -81 -110 -81q-76 0 -110 94l-4 36v3q0 85 77 120q15 8 37 8zM3141 1905h2

<glyph glyph-name=".notdef" horiz-adv-x="5040" 
d="M3351 2045h10q37 -10 37 -52q0 -12 -32 -57h-28q0 24 28 54l2 10q-5 13 -10 15h-9q-8 0 -10 -19h-30q6 49 42 49zM2019 2016l29 -31q0 -16 -40 -30h-19l-59 12l-11 -12l-28 25q11 29 43 29h11l42 -11h2q10 0 30 18zM468 1980h142v-60h-94v-75h89v-59h-89v-129l-5 -5h-49
v323zM1155 1980h43l6 -5v-78h30v-52h-30v-188l-6 -5h-49v193h-25v52h25v78zM1621 1980h42l4 -5v-94h3q23 24 54 24h2q58 0 83 -71l2 -39v-143h-52v115q0 80 -42 80h-7q-43 0 -43 -86v-109h-51v323zM2200 1980h49l5 -5v-222q10 -51 45 -51q44 7 44 59v214l5 5h49v-216
q0 -85 -66 -112q-15 -8 -35 -8q-47 0 -82 55q-14 24 -14 57v224zM2435 1980h159v-60h-56v-268h-53v268h-55v55zM2621 1980h71q7 -4 83 -251h2l80 251h73v-328h-54v242h-2l-74 -242h-44q-4 0 -58 182l-19 60h-3v-242h-55v328zM3760 1980h52v-328h-45l-5 5v11l3 2l-3 14
q-29 -40 -78 -40q-67 0 -100 91l-5 39v3q0 94 92 125l23 3q35 0 63 -32h3v107zM2057 1928h36l4 -6v-49h-45v-221h-48v23q-23 -31 -59 -31q-89 14 -89 97v156h51v-104q0 -79 26 -86l18 -5h6q26 0 39 36l3 26v133h53v25zM3476 1928v-55h-31v-221h-47v25h-2q-15 -33 -57 -33
q-68 0 -86 78l-3 29v146h52v-120q0 -50 19 -68l21 -7h9q42 0 42 69v126h27q4 0 4 28l3 3h49zM758 1905q68 0 103 -77q9 -18 12 -54q0 -88 -90 -127l-32 -3q-63 0 -101 73q-12 22 -12 52v10q0 94 101 126h19zM1011 1905h3q74 0 83 -101v-152h-51v119q0 76 -42 76h-5
q-44 0 -44 -76v-119h-52v245h46v-21q30 29 62 29zM1466 1905h7q72 0 105 -89h-60q-16 31 -42 31h-17q-53 -14 -53 -61l-3 -15q12 -69 61 -69h9q22 0 47 27h40l2 3h3l2 -3l2 3l3 -3l2 3l2 -7q-33 -81 -110 -81q-76 0 -110 94l-4 36v3q0 85 77 120q15 8 37 8zM3141 1905h2
q49 0 70 -60v-14h-52q0 16 -16 16h-4q-14 0 -19 -13v-13q0 -9 68 -35q30 -19 30 -59q0 -58 -61 -80l-23 -3q-76 12 -76 83h54q0 -20 27 -25h4q19 0 24 23q0 22 -68 44q-34 27 -34 59q0 66 74 77zM4203 1905q55 0 77 -63q7 -18 7 -65v-125h-52v112q0 83 -40 83h-11
q-33 0 -40 -54v-141h-52v5h-2l2 2v238h47v-21q25 29 64 29zM4432 1905h5q40 0 69 -40v18l-3 3l3 11h47v-208q0 -97 -85 -132l-33 -4h-7q-70 0 -104 80h59q24 -22 45 -23h13q22 0 43 22q15 13 22 52h-3q-32 -40 -73 -40q-57 0 -96 70q-10 18 -14 63q0 88 87 125zM3851 1897
h53v-136q6 -59 40 -59h7q46 0 46 93v102h51v-245h-47l-3 10h3l-3 3v5l3 2v3h-4q0 -23 -57 -31h-3q-59 0 -84 75l-2 85v93zM690 1771q10 -69 63 -69h7q59 14 59 65v15q-13 65 -59 65h-5q-58 0 -65 -76zM3630 1774q13 -72 61 -72h5q58 0 66 75q0 49 -51 70h-22q-37 0 -56 -57z
M4374 1774q8 -72 65 -72h5q59 12 59 72q0 61 -59 73h-14q-56 -16 -56 -62v-11zM3928 1620h52v-57h-52v57zM1054 1402q43 -11 43 -49v-4q0 -17 -32 -60h-28q0 25 31 57v7q0 12 -7 15h-12q-10 -4 -10 -19h-28v6q0 32 33 44zM3349 1339q92 0 138 -99h-60q-37 42 -80 42
q-55 0 -87 -68q-10 -22 -10 -47q0 -78 81 -110l18 -1q36 0 75 39h61q-44 -97 -138 -97q-93 0 -141 112q-10 31 -10 62q0 97 90 152q29 15 63 15zM3664 1339q57 0 103 -47q46 -51 46 -115v-20q0 -89 -91 -146q-33 -13 -63 -13q-89 0 -138 101q-13 33 -13 60v18q0 98 98 151
q29 11 58 11zM2261 1337h2l47 -11h3q11 0 26 11l18 -36q-18 -19 -35 -19h-3l-54 10l-20 -7l-20 36q18 16 36 16zM716 1334h19q118 0 129 -26q25 -26 25 -62q-10 -57 -30 -57v-6q47 -23 47 -66v-18q0 -63 -69 -88l-54 -5h-67v328zM2550 1334h53v-217q6 -61 45 -61q29 0 44 39
l3 30v203l4 6h45l5 -6v-171q0 -118 -40 -133q-24 -26 -64 -26q-55 0 -91 76l-4 54v206zM2805 1334h59q4 0 122 -237h4v237h50l4 -6v-322h-58q-29 48 -125 238h-3v-238h-53v328zM3101 1334h54v-328h-54v328zM3859 1334h8q155 0 174 -40q23 -11 47 -75l4 -36v-11l3 -2
q0 -94 -82 -149q-35 -15 -99 -15h-55v328zM4141 1334h153v-60h-103v-75h101v-57h-101v-74l4 -5h99v-57h-157v322zM3563 1175v-10q0 -76 79 -108l19 -1q68 0 96 86l3 20v15q0 61 -60 94q-12 8 -39 11q-66 0 -96 -83zM770 1274v-67h9q54 0 54 28l3 14q-11 25 -29 25h-37z
M3912 1274v-206l2 -3v-2q104 0 122 76l2 15v29q0 34 -32 68q-25 23 -78 23h-16zM1041 1259h5q38 0 71 -40v32h49v-245h-49v32q-36 -40 -80 -40q-75 0 -101 97l-5 36q0 89 85 125zM1314 1259h3q74 0 83 -102v-151h-51v128q0 67 -42 67h-10q-34 0 -39 -62v-133h-52v245h47v-21
q28 29 61 29zM1543 1259h5q45 0 71 -40v32h47v-219q0 -95 -104 -126h-16q-74 0 -108 82h59q26 -25 44 -25h14q52 0 64 77q-33 -42 -76 -42q-60 0 -101 81l-7 44v16q0 79 85 117zM1912 1259h2q43 0 61 -37h2q32 37 69 37h4q57 0 79 -55q8 -25 8 -45v-153h-52v138q0 44 -23 55
l-12 2h-15q-32 0 -36 -65v-130h-52v136q0 59 -43 59h-8q-32 0 -36 -57v-138h-54v245h50v-21h2q6 24 54 29zM2282 1259q47 0 75 -42v34h47v-245h-47v32q-36 -40 -78 -40q-74 0 -102 92l-6 41q0 90 85 125zM985 1117q0 -48 61 -61h4q45 0 62 46l3 15v22q-12 62 -57 62h-14
q-41 0 -59 -57v-27zM1487 1128q0 -48 43 -68l18 -4h5q47 0 63 57v23q-11 65 -58 65h-12q-50 0 -59 -73zM2225 1131v-14q15 -61 57 -61h14q58 12 58 64v11q0 45 -37 65l-18 5h-10q-64 -8 -64 -70zM770 1150v-82q0 -5 7 -5q77 0 77 45q0 34 -47 42h-37zM2966 753l24 -28
l-51 -55q-18 12 -27 26zM1524 727l85 -54q0 -15 -21 -42l-87 54q18 41 23 42zM2850 693h38l55 -60h-54l-21 26l-23 -26h-54q54 60 59 60zM3422 693h40l56 -60h-54l-24 26h-1q0 -5 -19 -26h-54zM622 685h52q8 -4 47 -137l34 -110q9 8 34 100l48 147h54v-2l-112 -326h-44z
M1159 685h51v-54h-51v54zM1354 685h46l6 -5v-323h-52v328zM2317 685h45l4 -5v-78h31v-52h-31v-193h-53v193h-26v52h26v78zM2425 685h52v-98h2q23 23 54 23h3q57 0 81 -71l3 -38v-144h-52v115q0 81 -39 81h-10q-42 0 -42 -87v-109h-52v328zM2664 685h52v-54h-52v54zM3028 685
h44l6 -5v-78h29v-52h-29v-193h-54v193h-27v52h27v78zM3234 685h52v-328h-52v328zM3957 685h52v-328h-52v328zM4316 685h51v-54h-51v54zM1555 610h5q83 0 110 -102l3 -23v-11q0 -83 -85 -120l-35 -5q-76 0 -111 97l-4 32q0 97 93 130zM1811 610h4q53 0 78 -60q7 -25 7 -81
v-112h-54v146q-7 50 -37 50h-10q-38 0 -42 -57v-139h-54v245h49v-21q26 29 59 29zM2046 610h4q45 0 63 -39h3v31h49v-206q0 -102 -89 -135l-28 -3h-5q-73 0 -106 81h52l37 -20l15 -3h14q50 0 61 72q-33 -39 -73 -39q-62 0 -98 76q-11 23 -12 60q0 85 86 123zM2866 610h2
q82 0 111 -104l2 -25l-2 -27h-172q15 -45 45 -45l14 -3q29 0 49 22h57v-3q-35 -76 -108 -76q-77 0 -111 97l-1 28v8q0 49 32 89q34 39 82 39zM3429 610h5q41 0 70 -39h2v31h47v-245h-47v31h-2q-35 -39 -77 -39q-71 0 -101 89l-5 36v14q0 86 84 120zM3711 610h7
q88 0 107 -128l-2 -1v-15q0 -65 -66 -106q-21 -11 -46 -11q-34 0 -64 32v-99l-5 -5h-49v325h49v-28q31 36 69 36zM4151 610q44 0 75 -39v31h49v-245h-49v31q-35 -39 -77 -39q-92 0 -108 132q0 84 73 121q15 8 37 8zM922 602h50v-136q3 -60 42 -60h5q44 0 44 87v109h52v-245
h-47v24h-5q0 -23 -56 -32h-3q-55 0 -82 68q-4 35 -4 99v81zM1159 602h51v-245h-51v245zM2664 602h52v-245h-52v245zM4316 602h51v-245h-51v245zM1492 488v-16q13 -66 59 -66h4q59 0 66 76q-13 71 -59 71h-11q-59 -16 -59 -65zM1987 472q15 -66 59 -66h11q48 0 59 75v1
q-13 71 -59 71h-14q-39 0 -56 -57v-24zM2805 506h122v2q-16 45 -59 45h-7q-35 0 -56 -47zM3373 474q13 -68 61 -68h5q52 0 65 63v12q-10 72 -57 72h-16q-56 -14 -56 -63zM3642 478q12 -72 61 -72h3q50 0 65 60v22q0 43 -49 65h-22q-47 0 -58 -72v-3zM4095 472q10 -66 66 -66
q43 0 61 48l2 15v16q0 54 -52 68h-18q-42 0 -59 -60v-21zM3416 321h51v-52h-51v52zM4137 321h51v-52h-51v52zM2733 133h4q35 0 43 -50v-2q0 -16 -24 -41l-10 -17h-28q0 25 28 56l3 2v2q-3 19 -9 19h-10q-8 0 -9 -19h-30q6 50 42 50zM1546 116l52 -60l-26 -19l-52 52zM352 79
h4q75 -48 85 -60l-20 -37q-88 49 -88 58zM3490 79l86 -58l-18 -39q-10 0 -91 55q15 36 23 42zM4578 76l19 -42l-91 -52l-20 39l92 58v-3zM1204 53h51v-19l5 -5h14v-36h-14l-5 -5v-279h-46v31q-34 -40 -81 -40q-72 0 -102 105l-3 26q0 102 101 131h14q33 0 66 -33v59l-6 5
h-43v36h49v24zM1480 45h40l56 -61h-53l-23 27l-23 -27h-53zM2641 45h33q12 0 63 -61h-54l-23 27q-19 -21 -19 -27h-58v4zM49 37h160v-60h-56v-268h-50l-4 5v245l2 3v2l-2 2l2 3l-2 2l2 3l-2 3h-54v54zM699 37h47v-73l2 -2l-2 -3v-3l2 -2l-2 -3v-3l2 -2v-2l-2 -3l2 -3h3
q17 24 51 24h3q53 0 77 -58q7 -17 7 -42v-153h-52v127q0 68 -40 68h-8q-43 0 -43 -86v-109h-52v322zM1297 37h47l5 -6v-49h-52v55zM1987 37h52v-198l70 115h62l-78 -118l90 -125v-2h-70q-10 22 -74 115v-115h-52v328zM2271 37v-99q24 24 53 24q57 0 80 -56q10 -19 10 -77
v-120h-54v133q0 62 -41 62h-11q-31 0 -37 -55v-140h-53v314l-1 3v3l1 2l-1 3l1 3h53zM2458 37h51v-55h-51v55zM3148 37h51v-108q27 33 68 33h3q75 0 105 -94l5 -37q0 -75 -64 -120q-30 -11 -49 -11q-41 0 -72 40v-31h-47v328zM4275 37h52v-99h2q23 24 54 24h3q60 0 82 -74
l2 -41v-138h-52v111q0 82 -32 82l-10 2h-12q-37 0 -37 -80v-115h-52v328zM329 -38h3v-58h-5q-42 0 -42 -57v-138h-53v245h47v-21q18 29 50 29zM564 -38q71 0 86 -87v-166h-51v136q-6 59 -41 59h-6q-45 0 -45 -84v-111h-52v245h50v-21q25 29 59 29zM1504 -38q72 0 105 -94
l5 -39q-2 -24 -7 -24h-169q17 -47 62 -47q24 0 48 21h57q-33 -79 -108 -79q-82 0 -113 105v37q0 81 89 117zM2657 -38h5q77 0 107 -97l3 -26v-21l-3 -13h-170q18 -47 53 -47h12q21 0 42 21h59q-34 -79 -105 -79q-84 0 -115 102l-2 29q0 93 91 128zM2915 -38h4q54 0 78 -60
q7 -25 7 -82v-111h-54v138q0 48 -35 57h-11q-38 0 -43 -57v-138h-54v245h50v-21q25 29 58 29zM3508 -38h6q40 0 70 -40h2v32h47v-245h-47v31h-2q-34 -40 -78 -40q-71 0 -101 90l-4 37v12q0 82 77 117q11 6 30 6zM3781 -38h4q62 0 82 -78l3 -84v-91h-54v138q0 48 -38 57h-9
q-38 0 -42 -52v-143h-54v245h49v-21q26 29 59 29zM4133 -38h1q74 0 104 -93l4 -40q0 -88 -84 -126l-25 -3q-41 0 -68 34v-106h-52v326h47v-29q30 37 73 37zM4714 -38h5q34 0 63 -37q27 37 69 37h6q56 0 79 -66l6 -51v-136h-52v122q0 73 -39 73h-7q-35 0 -41 -50v-140l-5 -5
h-48v140q0 42 -31 55h-17q-40 0 -40 -77v-118h-51v245h47v-21q22 29 56 29zM359 -46h49l5 -6v-234l-5 -5h-49v245zM1297 -46h52v-245h-52v245zM1649 -46h52v-136q4 -60 43 -60h4q44 0 44 81v115h52v-245h-47v24h-5q-12 -33 -59 -33q-52 0 -79 63q-5 12 -5 34v157zM2458 -46
h51v-245h-51v245zM4515 -46h51v-245h-51v245zM1077 -169q0 -53 51 -73h12q54 0 66 66v10q0 53 -54 70h-17q-38 0 -58 -57v-16zM1438 -143h122q-18 47 -53 47h-7q-43 0 -62 -44v-3zM2599 -143h122q-21 47 -54 47h-7q-46 0 -61 -47zM3196 -158v-11q10 -73 61 -73h5q64 8 64 71
v5q0 45 -38 65l-18 5h-14q-60 -14 -60 -62zM3452 -173q14 -69 62 -69h11q41 0 59 60v13q-8 73 -56 73h-17q-47 0 -59 -73v-4zM4062 -158v-22q0 -47 59 -62h9q50 0 61 76q-13 70 -58 70h-15q-56 -17 -56 -62z" />
    <glyph glyph-name=".null" horiz-adv-x="0" 
 />
    <glyph glyph-name="nonmarkingreturn" horiz-adv-x="571" 
 />
    <glyph glyph-name="space" unicode=" " horiz-adv-x="593" 
 />
    <glyph glyph-name="exclam" unicode="!" horiz-adv-x="634" 
d="M495 1597q-26 -576 -37 -1089h-284q-4 73 -9 220l-26 869h356zM325 324q74 0 125 -51t51 -123q0 -170 -178 -170q-74 0 -127 48q-53 50 -53 122q0 71 53 123q53 51 127 51h2z" />
    <glyph glyph-name="quotedbl" unicode="&#x22;" horiz-adv-x="903" 
d="M399 1610l-84 -561l-131 -33l-109 559zM827 1610l-84 -561l-131 -33l-109 559z" />
    <glyph glyph-name="numbersign" unicode="#" horiz-adv-x="1327" 
d="M465 934h-221l37 188h247l95 303h129l-99 -303h246l94 303h123l-92 -303h215l-43 -188h-234l-77 -256h202l-43 -186h-223l-106 -351h-121l104 351h-243l-111 -351h-127l109 351h-238l43 186h260zM762 678l78 256h-246l-78 -256h246z" />
    <glyph glyph-name="dollar" unicode="$" horiz-adv-x="931" 
d="M839 487q0 -159 -106 -275q-107 -117 -279 -138l-33 -246h-198l45 242q-101 8 -199 45l8 297h6q47 -21 84 -31q73 -21 148 -21q157 0 157 127q0 45 -35 90q-21 27 -75 72q-52 44 -88 77q-44 41 -78 81q-98 117 -98 262q0 176 102 294q100 116 268 142l26 197q4 31 5 39v6
h197l-17 -101q-1 -6 -1 -9l-21 -121l86 -12q47 -8 80 -23q-11 -150 -15 -295h-6q-31 15 -61 24q-58 15 -117 15q-66 0 -113 -32q-55 -37 -55 -103q0 -70 92 -152q61 -53 94 -85q50 -48 99 -103q98 -114 98 -261v-2z" />
    <glyph glyph-name="percent" unicode="%" horiz-adv-x="1691" 
d="M446 1597q172 0 278 -105q105 -104 105 -265q0 -154 -107 -264q-110 -113 -274 -113q-169 0 -282 112q-111 109 -111 267q0 153 111 260q112 108 278 108h2zM450 1040q72 0 113 61q37 53 37 126q0 192 -154 192q-160 0 -160 -188q0 -79 37 -130q43 -61 125 -61h2z
M1251 737q170 0 278 -109q105 -105 105 -263q0 -156 -102 -263q-109 -114 -281 -114q-171 0 -283 113q-108 109 -108 264t110 263q112 109 279 109h2zM1255 170q66 0 110 59q42 56 42 136q0 190 -154 190q-160 0 -160 -190q0 -195 160 -195h2zM1485 1626q-4 -6 -51 -81
q-40 -64 -120 -190l-542 -863q-98 -155 -165 -262l-118 -189q-46 -73 -49 -78h-233l1040 1663h238z" />
    <glyph glyph-name="ampersand" unicode="&#x26;" horiz-adv-x="1533" 
d="M565 -25q-226 0 -370 124q-146 125 -146 327q0 138 92 257q78 102 213 179v2q-45 59 -74 113q-61 123 -61 244q0 166 127 281q127 116 311 116q210 0 333 -111q114 -104 114 -266q0 -83 -45 -167q-36 -68 -99 -130q-92 -88 -176 -133v-2q88 -120 230 -264l4 2
q21 27 45 68l39 75q27 54 45 113h327v-4q-26 -91 -51 -150q-80 -181 -198 -319q68 -67 110 -108l219 -212v-10h-401q-5 0 -10 3l-9 5q-56 42 -120 111l-7 -2q-177 -142 -440 -142h-2zM661 1335q-110 0 -110 -118q0 -44 26 -109q7 -16 19 -35l22 -37h6q54 41 78 66
q70 61 70 125q0 108 -109 108h-2zM596 266q127 0 205 58q-164 153 -279 305q-121 -86 -121 -180q0 -183 193 -183h2z" />
    <glyph glyph-name="quotesingle" unicode="'" horiz-adv-x="542" 
d="M282 1606q67 0 112 -46q52 -53 52 -149q0 -137 -90 -258q-82 -113 -191 -176l-43 47q38 40 70 90q51 83 51 148q0 7 -8 12q-3 1 -7 3l-7 3q-109 32 -109 158q0 72 51 121q49 47 117 47h2z" />
    <glyph glyph-name="parenleft" unicode="(" horiz-adv-x="768" 
d="M501 -197q-153 182 -235 398q-54 139 -80 266q-29 143 -29 301q0 279 109 567q36 100 105 215q63 105 132 189h242q-141 -226 -207 -445q-76 -251 -76 -526q0 -283 76 -526q68 -224 203 -439h-240z" />
    <glyph glyph-name="parenright" unicode=")" horiz-adv-x="768" 
d="M260 1739q68 -78 133 -188q58 -101 104 -212q111 -268 111 -567q0 -302 -107 -567q-43 -111 -110 -221q-59 -98 -127 -181h-240q140 221 205 443q74 249 74 530q0 139 -22 275q-19 125 -56 247q-67 216 -203 441h238z" />
    <glyph glyph-name="asterisk" unicode="*" horiz-adv-x="774" 
d="M292 944q4 51 14 117l16 99q2 8 3 14l-2 2q-58 -47 -92 -73l-97 -71l-92 158q42 21 104 46l109 44v2q-119 44 -215 92l94 160q43 -28 94 -69l93 -79l4 3l-19 122q-9 70 -12 115h188q-2 -48 -13 -117l-21 -120l4 -3l92 77q54 43 96 71l94 -160q-47 -26 -114 -53
q-24 -9 -55 -21l-50 -18v-2l82 -30q15 -6 27 -10q64 -24 110 -48l-94 -160q-45 28 -96 68q-41 31 -90 74l-2 -3q3 -21 8 -55q1 -5 2 -14l7 -42q11 -67 13 -116h-190z" />
    <glyph glyph-name="plus" unicode="+" horiz-adv-x="1142" 
d="M690 195h-238v421h-391v234h391v383h238v-383h391v-234h-391v-421z" />
    <glyph glyph-name="comma" unicode="," horiz-adv-x="542" 
d="M274 319q69 0 117 -46q57 -55 57 -158q0 -135 -90 -260q-85 -116 -192 -183l-54 56q38 40 70 90q51 83 51 147q0 8 -8 12q-3 2 -7 4l-7 3q-113 31 -113 159q0 77 55 128q51 48 119 48h2z" />
    <glyph glyph-name="hyphen" unicode="-" horiz-adv-x="757" 
d="M696 637h-635v258h635v-258z" />
    <glyph glyph-name="hyphen" unicode="&#x2010;" horiz-adv-x="757" 
d="M696 637h-635v258h635v-258z" />
    <glyph glyph-name="period" unicode="." horiz-adv-x="542" 
d="M274 324q74 0 125 -51t51 -123q0 -170 -178 -170q-74 0 -127 48q-53 50 -53 122q0 71 53 123q53 51 127 51h2z" />
    <glyph glyph-name="slash" unicode="/" horiz-adv-x="1056" 
d="M1067 1626q-135 -259 -234 -451l-626 -1216h-221l446 854l416 813h219z" />
    <glyph glyph-name="zero" unicode="0" horiz-adv-x="1433" 
d="M731 1618q273 0 453 -232q179 -229 179 -575q0 -351 -169 -585q-178 -246 -468 -246q-301 0 -485 247q-172 232 -172 576q0 355 178 582q182 233 481 233h3zM722 309q132 0 198 170q27 70 40 163q12 81 12 169q0 82 -12 161q-15 89 -42 157q-68 165 -198 165
q-136 0 -204 -163q-28 -68 -42 -159q-12 -80 -12 -169q0 -84 11 -161q13 -92 40 -160q67 -173 207 -173h2z" />
    <glyph glyph-name="one" unicode="1" horiz-adv-x="962" 
d="M721 0h-379v1224q0 3 -10 1l-49 -16q-26 -8 -73 -25l-150 -54l-68 189q52 21 139 62l167 80q71 35 159 79l115 57h149v-1597z" />
    <glyph glyph-name="two" unicode="2" horiz-adv-x="1228" 
d="M547 1626q257 0 406 -137q140 -129 140 -338q0 -173 -82 -342q-34 -71 -85 -145q-42 -61 -101 -132q-85 -105 -211 -213h551v-319h-1112v223q59 50 143 127q101 93 176 170q105 108 201 238q115 157 115 301q0 107 -72 165q-66 54 -172 54q-71 0 -134 -13
q-52 -10 -114 -32q-56 -20 -86 -39h-4q0 131 -8 348q194 84 447 84h2z" />
    <glyph glyph-name="three" unicode="3" horiz-adv-x="1134" 
d="M222 946q119 0 181 12q88 16 143 48q74 44 74 133q0 71 -54 116q-63 52 -168 52q-132 0 -223 -39l-46 -19q-24 -10 -44 -22h-4l-6 325q171 70 377 70q227 0 362 -88q89 -58 137 -135q58 -92 58 -209q0 -178 -129 -279q-85 -66 -174 -88v-6q117 -21 166 -51
q192 -114 192 -328q0 -215 -162 -338q-83 -63 -206 -94q-106 -26 -230 -26q-213 0 -430 92l10 336h6q22 -15 47 -29l22 -11l19 -10q125 -59 258 -59q130 0 197 51q66 49 66 135q0 75 -62 117q-53 38 -149 49q-54 6 -114 7l-114 1v287z" />
    <glyph glyph-name="four" unicode="4" horiz-adv-x="1396" 
d="M1369 573v-280h-241v-293h-375v293h-721v231q60 86 152 213q86 119 196 267q210 283 447 593h297v-1024h245zM759 573v106l8 374h-2l-167 -229q-108 -150 -175 -246v-5h336z" />
    <glyph glyph-name="five" unicode="5" horiz-adv-x="1187" 
d="M1101 537q0 -120 -62 -237q-53 -101 -126 -161q-108 -86 -236 -123q-115 -32 -274 -32q-75 0 -178 19q-114 20 -189 52l35 316h6q9 -6 22 -12q10 -4 23 -9l24 -8q10 -4 12 -4l11 -4q101 -35 244 -35q105 0 182 45q103 61 103 172q0 75 -46 130q-36 42 -94 69
q-91 39 -258 39q-56 0 -109 -4l-44 -4q-10 -1 -21 -2l-20 -3l96 856h878l-18 -327h-549l-28 -223q79 0 166 -17q100 -19 173 -53q125 -59 194 -155q83 -117 83 -283v-2z" />
    <glyph glyph-name="six" unicode="6" horiz-adv-x="1320" 
d="M1251 547q0 -253 -172 -408q-177 -159 -424 -159q-254 0 -415 146q-171 155 -171 423q0 134 59 280q60 148 172 316q149 228 314 452h418q-59 -75 -143 -186l-300 -403l2 -4q58 28 164 28q222 0 360 -137q136 -135 136 -346v-2zM671 299q90 0 155 65q68 69 68 177
q0 160 -137 217q-39 16 -90 16q-98 0 -162 -61q-67 -64 -67 -164q0 -250 231 -250h2z" />
    <glyph glyph-name="seven" unicode="7" horiz-adv-x="1214" 
d="M55 1270v327h1124v-124l-206 -428q-107 -220 -188 -392l-166 -350l-140 -303h-381l159 325q70 142 142 292l315 653h-659z" />
    <glyph glyph-name="eight" unicode="8" horiz-adv-x="1271" 
d="M630 655q-74 0 -127 -46q-61 -55 -61 -150q0 -174 190 -174q182 0 182 182q0 90 -55 142q-51 46 -127 46h-2zM622 -8q-234 0 -387 113q-162 119 -162 315q0 140 82 249q76 101 199 146q-248 98 -248 350q0 183 135 311q151 142 403 142q233 0 377 -130q135 -122 135 -300
q0 -260 -245 -359q286 -79 286 -376q0 -201 -153 -329q-158 -132 -420 -132h-2zM632 1325q-82 0 -129 -55q-41 -50 -41 -125q0 -83 54 -129q47 -39 116 -39q67 0 112 39q56 48 56 139q0 67 -45 117q-47 53 -121 53h-2z" />
    <glyph glyph-name="nine" unicode="9" horiz-adv-x="1320" 
d="M1249 1040q0 -138 -70 -299q-33 -76 -87 -168q-58 -98 -163 -254l-225 -319h-418l301 395l141 195l-2 4q-27 -15 -75 -23q-37 -6 -74 -6q-224 0 -364 131q-144 135 -144 363q0 230 162 389q173 170 434 170q257 0 417 -150q167 -157 167 -426v-2zM647 1298
q-102 0 -166 -75q-60 -69 -60 -164q0 -96 61 -162q65 -70 165 -70q109 0 176 72q57 65 57 168q0 231 -231 231h-2z" />
    <glyph glyph-name="colon" unicode=":" horiz-adv-x="542" 
d="M274 324q74 0 125 -51t51 -123q0 -170 -178 -170q-74 0 -127 48q-53 50 -53 122q0 71 53 123q53 51 127 51h2zM274 920q74 0 125 -51t51 -121q0 -170 -178 -170q-180 0 -180 170q0 70 53 121t127 51h2z" />
    <glyph glyph-name="semicolon" unicode=";" horiz-adv-x="542" 
d="M282 920q174 0 174 -175q0 -170 -176 -170q-182 0 -182 170q0 73 54 124q53 51 128 51h2zM272 324q69 0 117 -47q57 -55 57 -158q0 -135 -90 -260q-85 -116 -192 -183l-54 56q38 40 70 90q51 83 51 147q0 8 -8 13q-3 1 -7 3l-7 3q-113 31 -113 159q0 77 55 128
q51 49 119 49h2z" />
    <glyph glyph-name="less" unicode="&#x3c;" horiz-adv-x="1142" 
d="M92 829l958 408v-229l-720 -283v-6l723 -285v-229l-961 409v215z" />
    <glyph glyph-name="equal" unicode="=" horiz-adv-x="1142" 
d="M1081 821h-1020v234h1020v-234zM1081 412h-1020v233h1020v-233z" />
    <glyph glyph-name="greater" unicode="&#x3e;" horiz-adv-x="1142" 
d="M92 205v229l721 285v4l-719 285v229l959 -408v-215z" />
    <glyph glyph-name="question" unicode="?" horiz-adv-x="925" 
d="M375 1626q75 0 151 -16q86 -19 144 -54q188 -114 188 -352q0 -122 -68 -233q-28 -45 -69 -94q-31 -35 -80 -84q-154 -154 -154 -304h-313q0 126 40 211q34 72 128 174q61 67 93 124q40 71 40 135q0 98 -86 141q-49 24 -117 24q-49 0 -69 -4q-33 -5 -60 -12l-47 -18
l-6 325q47 15 137 29q58 8 146 8h2zM330 324q72 0 123 -51t51 -123q0 -170 -176 -170q-183 0 -183 170q0 72 54 123q53 51 129 51h2z" />
    <glyph glyph-name="at" unicode="@" horiz-adv-x="1830" 
d="M1279 -61q-176 -74 -401 -74q-206 0 -368 64q-145 58 -246 164q-92 97 -139 224q-44 116 -44 240q0 351 252 587q258 240 653 240q338 0 552 -186q210 -183 210 -461q0 -221 -151 -366q-139 -133 -322 -133q-189 0 -217 155h-4q-110 -155 -293 -155q-120 0 -199 75
q-84 81 -84 217q0 201 152 345q158 151 397 151q196 0 299 -55l-63 -400q-25 -163 53 -165q83 -2 154 78q81 91 81 233q0 213 -160 356q-166 150 -427 150q-247 0 -453 -172q-105 -88 -163 -202q-64 -124 -64 -265q0 -252 169 -404q172 -153 457 -153q190 0 330 63z
M1072 813q-6 1 -17 2l-56 4q-118 0 -198 -76q-75 -72 -75 -165q0 -144 121 -144q62 0 120 65q61 68 79 167z" />
    <glyph glyph-name="A" unicode="A" horiz-adv-x="1454" 
d="M459 229q-16 -39 -34 -83l-58 -140v-6h-389v6l719 1620h53l709 -1620v-6h-426v6l-88 223h-486zM834 532v5q-56 141 -89 234q-25 73 -38 120h-2q-12 -44 -39 -120q-33 -89 -92 -234v-5h260z" />
    <glyph glyph-name="B" unicode="B" horiz-adv-x="1255" 
d="M1173 449q0 -114 -63 -215q-57 -91 -146 -144q-86 -51 -198 -73q-121 -23 -318 -23l-208 6l-51 4q-22 1 -40 2v1583q62 8 139 10l108 4l120 1q157 0 290 -39q47 -14 88 -35q57 -29 99 -70q52 -50 81 -116q33 -78 33 -175q0 -112 -61 -202q-65 -97 -176 -129v-4
q125 -27 211 -127q92 -108 92 -256v-2zM743 1135q0 155 -172 155q-35 0 -72 -4v-311q23 -2 60 -2q43 0 84 14q100 35 100 146v2zM788 500q0 123 -121 159q-50 15 -98 15l-70 -2v-350q0 -5 2 -5q12 -1 34 -1l38 -1q65 0 115 25q100 46 100 158v2z" />
    <glyph glyph-name="C" unicode="C" horiz-adv-x="1361" 
d="M65 805q0 352 243 575q258 238 703 238q66 0 133 -6q79 -8 121 -19l-12 -340l-76 15q-7 1 -12 2q-68 10 -146 10q-250 0 -399 -131q-147 -130 -147 -346q0 -220 135 -353q137 -135 370 -135l49 1q25 0 44 1q47 2 86 9q45 6 94 20h4l12 -332q-53 -15 -129 -26
q-96 -13 -194 -13q-384 0 -629 224q-250 230 -250 604v2z" />
    <glyph glyph-name="D" unicode="D" horiz-adv-x="1533" 
d="M1468 829q0 -458 -363 -696q-208 -139 -542 -139q-71 0 -147 1q-64 1 -120 3q-79 4 -147 10v1581l73 7q53 5 113 8q148 6 252 6q342 0 555 -131q173 -107 256 -294q70 -157 70 -354v-2zM1075 821q0 237 -152 359q-114 88 -291 88q-24 0 -57 -3l-47 -3v-914q0 -4 4 -4
q46 -6 94 -6q145 0 258 80q88 63 137 159q54 106 54 242v2z" />
    <glyph glyph-name="E" unicode="E" horiz-adv-x="1112" 
d="M149 1597h850v-317h-471v-313h416v-318h-416v-330h483v-319h-862v1597z" />
    <glyph glyph-name="F" unicode="F" horiz-adv-x="1091" 
d="M528 915h416v-317h-416v-598h-379v1597h850v-317h-471v-365z" />
    <glyph glyph-name="G" unicode="G" horiz-adv-x="1525" 
d="M65 803q0 355 256 584q263 235 690 235q105 0 207 -10q87 -10 162 -27l-6 -148q-4 -91 -6 -192l-115 27q-100 18 -213 18q-254 0 -408 -128q-159 -132 -159 -357q0 -222 127 -357t333 -135l38 1l46 3v443h377v-719q-75 -30 -177 -47q-117 -19 -267 -19q-377 0 -626 223
q-259 231 -259 603v2z" />
    <glyph glyph-name="H" unicode="H" horiz-adv-x="1658" 
d="M1509 0h-379v643h-602v-643h-379v1597h379v-630h602v630h379v-1597z" />
    <glyph glyph-name="I" unicode="I" horiz-adv-x="679" 
d="M530 0h-381v1597h381v-1597z" />
    <glyph glyph-name="J" unicode="J" horiz-adv-x="1060" 
d="M929 733q0 -115 -2 -181q-3 -83 -12 -142q-17 -124 -74 -220q-71 -122 -206 -184q-110 -49 -283 -49q-77 0 -162 16q-86 14 -135 33v354h2q51 -27 100 -38q59 -17 117 -17q84 0 137 23q67 28 103 92q41 76 41 313v864h374v-864z" />
    <glyph glyph-name="K" unicode="K" horiz-adv-x="1509" 
d="M149 1597h381v-624h4l469 620v4h453v-4l-150 -182q-54 -65 -115 -137l-352 -414l721 -854v-6h-481l-151 192l-394 498h-4v-690h-381v1597z" />
    <glyph glyph-name="L" unicode="L" horiz-adv-x="1040" 
d="M149 1597h379v-1267q0 -11 8 -11h465v-319h-852v1597z" />
    <glyph glyph-name="M" unicode="M" horiz-adv-x="1892" 
d="M286 1610h47l286 -447l173 -277q59 -97 96 -162q28 -51 55 -106h4q28 53 56 103q37 65 97 161q67 108 176 277q115 179 292 451h49l238 -1610h-387l-56 403q-9 72 -17 147q-9 97 -13 179h-3q-39 -86 -74 -152q-26 -49 -67 -118q-42 -73 -110 -180q-78 -123 -168 -259h-50
q-93 138 -175 265q-68 107 -113 184l-66 120q-35 66 -69 142h-2q-5 -84 -14 -182q-7 -71 -17 -148l-49 -401h-369l6 36q6 34 17 102q13 82 34 214z" />
    <glyph glyph-name="N" unicode="N" horiz-adv-x="1679" 
d="M1531 -20h-49q-243 204 -409 348q-156 134 -262 231l-147 135l-163 160h-4l4 -106v-748h-352v1612h49l424 -362q169 -146 266 -238l70 -65q38 -36 70 -67q79 -76 149 -147h4q-1 70 -2 130v734h352v-1617z" />
    <glyph glyph-name="O" unicode="O" 
d="M1746 807q0 -355 -237 -592q-239 -240 -600 -240q-356 0 -598 238q-242 237 -242 584t244 583q246 238 610 238q357 0 591 -233q232 -230 232 -576v-2zM1359 801q0 198 -125 333q-127 136 -319 136q-201 0 -330 -135q-129 -133 -129 -338q0 -203 127 -337
q130 -136 332 -136q199 0 323 137q121 134 121 338v2z" />
    <glyph glyph-name="P" unicode="P" horiz-adv-x="1261" 
d="M149 1591q106 13 268 13q56 0 107 -2q64 -3 117 -9q72 -8 139 -27q77 -22 139 -57q116 -65 182 -170q76 -120 76 -280q0 -154 -67 -279q-75 -132 -203 -200q-75 -40 -178 -64q-92 -21 -222 -24v-492h-358v1591zM811 1057q0 118 -95 182q-63 41 -147 41h-28l-34 -2v-467
h31q24 1 35 2q85 6 143 45q48 33 70 80q25 52 25 117v2z" />
    <glyph glyph-name="Q" unicode="Q" 
d="M1751 805q0 -113 -33 -227q-12 -43 -28 -83l-26 -57q-45 -83 -109 -154q-73 -82 -157 -130v-9l91 -40l188 -76l180 -64l-213 -246h-4q-56 24 -138 62q-73 35 -145 72q-55 27 -140 75q-27 15 -64 37l-50 29q-42 -11 -92 -17q-49 -6 -98 -6q-358 0 -604 239
q-244 238 -244 581q0 351 248 588q249 239 618 239q354 0 587 -233q233 -231 233 -578v-2zM1363 801q0 198 -127 336q-129 139 -321 139q-200 0 -332 -138q-131 -136 -131 -341q0 -203 129 -340q132 -140 334 -140q199 0 326 141q122 137 122 341v2z" />
    <glyph glyph-name="R" unicode="R" horiz-adv-x="1318" 
d="M149 1591q59 7 145 11q91 4 199 4q187 0 326 -37q57 -16 108 -44q61 -34 106 -84q52 -57 80 -131q31 -85 31 -190q0 -120 -50 -224q-40 -84 -97 -130q-65 -58 -107 -74v-6l461 -682v-4h-426l-381 614h-37v-614h-358v1591zM778 1092q0 198 -199 198l-72 -4v-407
q10 -2 25 -2h29q77 0 135 41q32 21 55 62q27 49 27 110v2z" />
    <glyph glyph-name="S" unicode="S" horiz-adv-x="1028" 
d="M946 422q0 -199 -151 -323q-150 -124 -386 -124q-202 0 -319 56l10 338h4q31 -17 82 -35q80 -27 180 -27q170 0 170 137q0 75 -104 160q-85 68 -160 144q-80 79 -123 161q-57 108 -57 228q0 198 129 325q146 146 420 146q138 0 227 -29l-10 -336h-4q-36 15 -80 25
q-48 10 -98 10q-187 0 -187 -139q0 -61 58 -125q19 -22 76 -72l114 -102q105 -98 152 -185q57 -104 57 -231v-2z" />
    <glyph glyph-name="T" unicode="T" horiz-adv-x="1284" 
d="M452 1278h-412v319h1202v-319h-411v-1278h-379v1278z" />
    <glyph glyph-name="U" unicode="U" horiz-adv-x="1595" 
d="M118 1597h387v-852q0 -212 45 -294q73 -129 256 -129q166 0 244 122q51 82 51 301v852h375v-852q0 -291 -66 -438q-63 -141 -214 -234q-168 -104 -382 -104q-481 0 -637 350q-35 78 -48 181q-11 89 -11 241v856z" />
    <glyph glyph-name="V" unicode="V" horiz-adv-x="1558" 
d="M807 -31h-49l-778 1624v4h432l110 -249q19 -42 46 -102l57 -126q60 -130 98 -223q32 -80 70 -186h6q41 114 69 186q38 97 95 221l213 475v4h403v-4l-317 -671z" />
    <glyph glyph-name="W" unicode="W" horiz-adv-x="1986" 
d="M1518 -31h-51q-141 271 -231 449q-84 165 -134 267q-43 90 -68 147q-17 40 -34 86h-2q-16 -45 -35 -87q-24 -57 -69 -147q-49 -101 -135 -267l-234 -448h-51l-488 1590q-7 24 -10 34v4h389l80 -253q32 -102 70 -230l40 -145q16 -58 33 -127h6q31 70 64 140q38 81 74 148
q41 79 83 157q34 63 70 127l99 173h53l170 -300q47 -83 94 -169q59 -109 127 -270h6q28 121 62 244l69 245q26 86 47 149l37 111h359l-38 -133z" />
    <glyph glyph-name="X" unicode="X" horiz-adv-x="1478" 
d="M520 803l-104 155l-426 635v4h467v-4l113 -182q46 -73 81 -131l82 -139h2q32 56 86 141l195 311v4h416v-4l-82 -130l-395 -644l509 -805q6 -8 7 -10v-4h-449v4l-218 361q-47 81 -79 143h-2q-65 -131 -166 -305q-93 -162 -114 -197v-6h-426v4z" />
    <glyph glyph-name="Y" unicode="Y" horiz-adv-x="1368" 
d="M880 678v-678h-379v657l-539 936v4h426v-4l228 -407q48 -89 73 -144h4q26 57 72 139l239 412v4h404v-6z" />
    <glyph glyph-name="Z" unicode="Z" horiz-adv-x="1351" 
d="M817 717q-44 -81 -107 -189q-59 -100 -120 -200v-9h694v-319h-1290v4l598 1096q43 77 100 176v8h-618v313h1210v-4l-176 -336z" />
    <glyph glyph-name="bracketleft" unicode="[" horiz-adv-x="737" 
d="M704 -231h-512v1970h512v-144h-209q-12 0 -16 -7q-2 -4 -2 -15q-2 -24 -2 -130v-1504q0 -10 3 -16q5 -7 17 -7h209v-147z" />
    <glyph glyph-name="backslash" unicode="\" horiz-adv-x="1040" 
d="M193 1626q390 -788 862 -1667h-219l-239 481q-103 204 -190 373q-86 166 -190 362q-50 93 -112 208l-131 243h219z" />
    <glyph glyph-name="bracketright" unicode="]" horiz-adv-x="737" 
d="M32 -84h211q12 0 16 7q2 5 2 16l1 1504q0 112 -1 130q0 11 -2 15q-4 7 -16 7h-211v144h514v-1968h-514v145z" />
    <glyph glyph-name="asciicircum" unicode="^" horiz-adv-x="1142" 
d="M569 1313l-283 -576h-266l442 860h220l442 -862h-273z" />
    <glyph glyph-name="underscore" unicode="_" horiz-adv-x="1024" 
d="M0 -154h1024v-102h-1024v102z" />
    <glyph glyph-name="grave" unicode="`" horiz-adv-x="542" 
d="M260 985q-67 0 -112 46q-52 53 -52 149q0 136 90 258q82 113 191 176l43 -47q-38 -41 -70 -90q-51 -84 -51 -148q0 -8 8 -12q2 -2 7 -3l7 -3q109 -32 109 -158q0 -72 -51 -121q-49 -47 -117 -47h-2z" />
    <glyph glyph-name="a" unicode="a" horiz-adv-x="1454" 
d="M459 229q-16 -39 -34 -83l-58 -140v-6h-389v6l719 1620h53l709 -1620v-6h-426v6l-88 223h-486zM834 532v5q-56 141 -89 234q-25 73 -38 120h-2q-12 -44 -39 -120q-33 -89 -92 -234v-5h260z" />
    <glyph glyph-name="b" unicode="b" horiz-adv-x="1255" 
d="M1173 449q0 -114 -63 -215q-57 -91 -146 -144q-86 -51 -198 -73q-121 -23 -318 -23l-208 6l-51 4q-22 1 -40 2v1583q62 8 139 10l108 4l120 1q157 0 290 -39q47 -14 88 -35q57 -29 99 -70q52 -50 81 -116q33 -78 33 -175q0 -112 -61 -202q-65 -97 -176 -129v-4
q125 -27 211 -127q92 -108 92 -256v-2zM743 1135q0 155 -172 155q-35 0 -72 -4v-311q23 -2 60 -2q43 0 84 14q100 35 100 146v2zM788 500q0 123 -121 159q-50 15 -98 15l-70 -2v-350q0 -5 2 -5q12 -1 34 -1l38 -1q65 0 115 25q100 46 100 158v2z" />
    <glyph glyph-name="c" unicode="c" horiz-adv-x="1361" 
d="M65 805q0 352 243 575q258 238 703 238q66 0 133 -6q79 -8 121 -19l-12 -340l-76 15q-7 1 -12 2q-68 10 -146 10q-250 0 -399 -131q-147 -130 -147 -346q0 -220 135 -353q137 -135 370 -135l49 1q25 0 44 1q47 2 86 9q45 6 94 20h4l12 -332q-53 -15 -129 -26
q-96 -13 -194 -13q-384 0 -629 224q-250 230 -250 604v2z" />
    <glyph glyph-name="d" unicode="d" horiz-adv-x="1533" 
d="M1468 829q0 -458 -363 -696q-208 -139 -542 -139q-71 0 -147 1q-64 1 -120 3q-79 4 -147 10v1581l73 7q53 5 113 8q148 6 252 6q342 0 555 -131q173 -107 256 -294q70 -157 70 -354v-2zM1075 821q0 237 -152 359q-114 88 -291 88q-24 0 -57 -3l-47 -3v-914q0 -4 4 -4
q46 -6 94 -6q145 0 258 80q88 63 137 159q54 106 54 242v2z" />
    <glyph glyph-name="e" unicode="e" horiz-adv-x="1112" 
d="M149 1597h850v-317h-471v-313h416v-318h-416v-330h483v-319h-862v1597z" />
    <glyph glyph-name="f" unicode="f" horiz-adv-x="1091" 
d="M528 915h416v-317h-416v-598h-379v1597h850v-317h-471v-365z" />
    <glyph glyph-name="g" unicode="g" horiz-adv-x="1525" 
d="M65 803q0 355 256 584q263 235 690 235q105 0 207 -10q87 -10 162 -27l-6 -148q-4 -91 -6 -192l-115 27q-100 18 -213 18q-254 0 -408 -128q-159 -132 -159 -357q0 -222 127 -357t333 -135l38 1l46 3v443h377v-719q-75 -30 -177 -47q-117 -19 -267 -19q-377 0 -626 223
q-259 231 -259 603v2z" />
    <glyph glyph-name="h" unicode="h" horiz-adv-x="1658" 
d="M1509 0h-379v643h-602v-643h-379v1597h379v-630h602v630h379v-1597z" />
    <glyph glyph-name="i" unicode="i" horiz-adv-x="679" 
d="M530 0h-381v1597h381v-1597z" />
    <glyph glyph-name="j" unicode="j" horiz-adv-x="1060" 
d="M929 733q0 -115 -2 -181q-3 -83 -12 -142q-17 -124 -74 -220q-71 -122 -206 -184q-110 -49 -283 -49q-77 0 -162 16q-86 14 -135 33v354h2q51 -27 100 -38q59 -17 117 -17q84 0 137 23q67 28 103 92q41 76 41 313v864h374v-864z" />
    <glyph glyph-name="k" unicode="k" horiz-adv-x="1509" 
d="M149 1597h381v-624h4l469 620v4h453v-4l-150 -182q-54 -65 -115 -137l-352 -414l721 -854v-6h-481l-151 192l-394 498h-4v-690h-381v1597z" />
    <glyph glyph-name="l" unicode="l" horiz-adv-x="1040" 
d="M149 1597h379v-1267q0 -11 8 -11h465v-319h-852v1597z" />
    <glyph glyph-name="m" unicode="m" horiz-adv-x="1892" 
d="M286 1610h47l286 -447l173 -277q59 -97 96 -162q28 -51 55 -106h4q28 53 56 103q37 65 97 161q67 108 176 277q115 179 292 451h49l238 -1610h-387l-56 403q-9 72 -17 147q-9 97 -13 179h-3q-39 -86 -74 -152q-26 -49 -67 -118q-42 -73 -110 -180q-78 -123 -168 -259h-50
q-93 138 -175 265q-68 107 -113 184l-66 120q-35 66 -69 142h-2q-5 -84 -14 -182q-7 -71 -17 -148l-49 -401h-369l6 36q6 34 17 102q13 82 34 214z" />
    <glyph glyph-name="n" unicode="n" horiz-adv-x="1679" 
d="M1531 -20h-49q-243 204 -409 348q-156 134 -262 231l-147 135l-163 160h-4l4 -106v-748h-352v1612h49l424 -362q169 -146 266 -238l70 -65q38 -36 70 -67q79 -76 149 -147h4q-1 70 -2 130v734h352v-1617z" />
    <glyph glyph-name="o" unicode="o" 
d="M1746 807q0 -355 -237 -592q-239 -240 -600 -240q-356 0 -598 238q-242 237 -242 584t244 583q246 238 610 238q357 0 591 -233q232 -230 232 -576v-2zM1359 801q0 198 -125 333q-127 136 -319 136q-201 0 -330 -135q-129 -133 -129 -338q0 -203 127 -337
q130 -136 332 -136q199 0 323 137q121 134 121 338v2z" />
    <glyph glyph-name="p" unicode="p" horiz-adv-x="1261" 
d="M149 1591q106 13 268 13q56 0 107 -2q64 -3 117 -9q72 -8 139 -27q77 -22 139 -57q116 -65 182 -170q76 -120 76 -280q0 -154 -67 -279q-75 -132 -203 -200q-75 -40 -178 -64q-92 -21 -222 -24v-492h-358v1591zM811 1057q0 118 -95 182q-63 41 -147 41h-28l-34 -2v-467
h31q24 1 35 2q85 6 143 45q48 33 70 80q25 52 25 117v2z" />
    <glyph glyph-name="q" unicode="q" 
d="M1751 805q0 -113 -33 -227q-12 -43 -28 -83l-26 -57q-45 -83 -109 -154q-73 -82 -157 -130v-9l91 -40l188 -76l180 -64l-213 -246h-4q-56 24 -138 62q-73 35 -145 72q-55 27 -140 75q-27 15 -64 37l-50 29q-42 -11 -92 -17q-49 -6 -98 -6q-358 0 -604 239
q-244 238 -244 581q0 351 248 588q249 239 618 239q354 0 587 -233q233 -231 233 -578v-2zM1363 801q0 198 -127 336q-129 139 -321 139q-200 0 -332 -138q-131 -136 -131 -341q0 -203 129 -340q132 -140 334 -140q199 0 326 141q122 137 122 341v2z" />
    <glyph glyph-name="r" unicode="r" horiz-adv-x="1318" 
d="M149 1591q59 7 145 11q91 4 199 4q187 0 326 -37q57 -16 108 -44q61 -34 106 -84q52 -57 80 -131q31 -85 31 -190q0 -120 -50 -224q-40 -84 -97 -130q-65 -58 -107 -74v-6l461 -682v-4h-426l-381 614h-37v-614h-358v1591zM778 1092q0 198 -199 198l-72 -4v-407
q10 -2 25 -2h29q77 0 135 41q32 21 55 62q27 49 27 110v2z" />
    <glyph glyph-name="s" unicode="s" horiz-adv-x="1028" 
d="M946 422q0 -199 -151 -323q-150 -124 -386 -124q-202 0 -319 56l10 338h4q31 -17 82 -35q80 -27 180 -27q170 0 170 137q0 75 -104 160q-85 68 -160 144q-80 79 -123 161q-57 108 -57 228q0 198 129 325q146 146 420 146q138 0 227 -29l-10 -336h-4q-36 15 -80 25
q-48 10 -98 10q-187 0 -187 -139q0 -61 58 -125q19 -22 76 -72l114 -102q105 -98 152 -185q57 -104 57 -231v-2z" />
    <glyph glyph-name="t" unicode="t" horiz-adv-x="1284" 
d="M452 1278h-412v319h1202v-319h-411v-1278h-379v1278z" />
    <glyph glyph-name="u" unicode="u" horiz-adv-x="1595" 
d="M118 1597h387v-852q0 -212 45 -294q73 -129 256 -129q166 0 244 122q51 82 51 301v852h375v-852q0 -291 -66 -438q-63 -141 -214 -234q-168 -104 -382 -104q-481 0 -637 350q-35 78 -48 181q-11 89 -11 241v856z" />
    <glyph glyph-name="v" unicode="v" horiz-adv-x="1558" 
d="M807 -31h-49l-778 1624v4h432l110 -249q19 -42 46 -102l57 -126q60 -130 98 -223q32 -80 70 -186h6q41 114 69 186q38 97 95 221l213 475v4h403v-4l-317 -671z" />
    <glyph glyph-name="w" unicode="w" horiz-adv-x="1986" 
d="M1518 -31h-51q-141 271 -231 449q-84 165 -134 267q-43 90 -68 147q-17 40 -34 86h-2q-16 -45 -35 -87q-24 -57 -69 -147q-49 -101 -135 -267l-234 -448h-51l-488 1590q-7 24 -10 34v4h389l80 -253q32 -102 70 -230l40 -145q16 -58 33 -127h6q31 70 64 140q38 81 74 148
q41 79 83 157q34 63 70 127l99 173h53l170 -300q47 -83 94 -169q59 -109 127 -270h6q28 121 62 244l69 245q26 86 47 149l37 111h359l-38 -133z" />
    <glyph glyph-name="x" unicode="x" horiz-adv-x="1478" 
d="M520 803l-104 155l-426 635v4h467v-4l113 -182q46 -73 81 -131l82 -139h2q32 56 86 141l195 311v4h416v-4l-82 -130l-395 -644l509 -805q6 -8 7 -10v-4h-449v4l-218 361q-47 81 -79 143h-2q-65 -131 -166 -305q-93 -162 -114 -197v-6h-426v4z" />
    <glyph glyph-name="y" unicode="y" horiz-adv-x="1368" 
d="M880 678v-678h-379v657l-539 936v4h426v-4l228 -407q48 -89 73 -144h4q26 57 72 139l239 412v4h404v-6z" />
    <glyph glyph-name="z" unicode="z" horiz-adv-x="1351" 
d="M817 717q-44 -81 -107 -189q-59 -100 -120 -200v-9h694v-319h-1290v4l598 1096q43 77 100 176v8h-618v313h1210v-4l-176 -336z" />
    <glyph glyph-name="braceleft" unicode="{" horiz-adv-x="768" 
d="M734 -213q-57 -4 -149 -4q-106 0 -198 61q-117 78 -136 222q-5 42 -3 118l7 141q5 90 5 135q0 68 -9 101q-42 158 -213 152v98q174 -7 213 152q9 35 9 104q0 45 -5 135l-2 35q-1 21 -2 36q-2 40 -2 68q-2 75 4 117q19 142 135 221q92 62 197 62q98 0 149 -4v-113
q-98 0 -139 -12q-81 -25 -96 -176q-4 -31 0 -92l8 -115q6 -75 7 -115q1 -58 -5 -88q-46 -217 -254 -262v-4q218 -45 254 -262q5 -30 3 -88q-1 -38 -7 -115l-2 -30q-1 -17 -2 -29q-2 -33 -3 -57q-3 -60 1 -91q17 -152 96 -176q41 -12 139 -12v-113z" />
    <glyph glyph-name="bar" unicode="|" horiz-adv-x="716" 
d="M481 1536v-2048h-248v2048h248z" />
    <glyph glyph-name="braceright" unicode="}" horiz-adv-x="768" 
d="M728 713q-173 6 -213 -152q-9 -36 -9 -104q0 -45 5 -135l2 -36q1 -20 2 -35q2 -40 3 -69q1 -74 -5 -116q-19 -143 -135 -221q-92 -62 -196 -62q-99 0 -150 4v113q98 0 139 12q81 24 97 176q3 31 0 91l-9 116q-5 75 -6 115q-2 58 4 88q46 216 254 262v4q-217 45 -254 262
q-5 30 -3 88q1 38 7 115l2 29q1 17 2 30q2 33 3 56q3 61 0 92q-18 152 -97 176q-41 12 -139 12v113q57 4 150 4q105 0 197 -62q117 -78 136 -221q6 -42 3 -118l-7 -141q-5 -90 -5 -136q0 -67 9 -100q45 -158 213 -152v-98z" />
    <glyph glyph-name="asciitilde" unicode="~" horiz-adv-x="1142" 
d="M784 545q-61 0 -117 22q-33 13 -112 58q-48 27 -81 40q-48 19 -93 19q-59 0 -112 -43q-41 -34 -81 -96l-129 149q50 82 140 141q95 62 186 62q62 0 117 -20q40 -14 94 -48q119 -73 182 -73q104 0 182 141l125 -147q-70 -107 -152 -159q-72 -46 -147 -46h-2z" />
    <glyph glyph-name="dieresis" unicode="&#xa8;" horiz-adv-x="1024" 
 />
    <glyph glyph-name="copyright" unicode="&#xa9;" horiz-adv-x="1638" 
d="M927 1212q23 0 64 -4q46 -3 67 -8q-5 -69 -8 -170l-57 10l-52 2q-115 0 -189 -59q-79 -64 -79 -172q0 -246 244 -246l38 1l34 3q32 4 59 13h4q0 -67 6 -168q-29 -10 -65 -15l-88 -4q-190 0 -310 109q-125 112 -125 295q0 192 133 306q125 107 322 107h2zM831 1546
q310 0 523 -212q214 -214 214 -529q0 -318 -214 -536q-218 -222 -546 -222q-312 0 -528 224q-211 219 -211 526q0 311 220 530q221 219 540 219h2zM821 190q249 0 420 180q169 177 169 429t-169 427q-171 177 -422 177q-250 0 -422 -177q-170 -176 -170 -429
q0 -251 166 -426q170 -181 426 -181h2z" />
    <glyph glyph-name="registered" unicode="&#xae;" horiz-adv-x="856" 
d="M563 1317q0 -55 -43 -88q-7 -5 -17 -12l-12 -9v-4l107 -155h-109q0 -2 -4 2l-41 66q-26 42 -45 73h-6v-141h-94v389l98 4q42 0 80 -10q32 -10 56 -35q30 -32 30 -78v-2zM469 1315q0 43 -54 43h-22v-98h12q18 0 39 8q25 14 25 45v2zM794 1237q0 -154 -106 -262
q-107 -109 -260 -109q-155 0 -261 102q-106 103 -106 255q0 156 109 265t266 109q151 0 254 -102q104 -103 104 -256v-2zM702 1231q0 122 -77 202q-78 80 -197 80q-120 0 -197 -80q-76 -81 -76 -204q0 -119 77 -199q78 -80 196 -80q119 0 197 81q77 80 77 198v2z" />
    <glyph glyph-name="acute" unicode="&#xb4;" horiz-adv-x="1024" 
 />
    <glyph glyph-name="paragraph" unicode="&#xb6;" horiz-adv-x="1126" 
d="M601 -143v768h-20q-190 0 -318 97q-145 111 -145 308q0 207 132 329q155 142 470 142q153 0 232 -16v-1628h-101v1556h-147v-1556h-103z" />
    <glyph glyph-name="onequarter" unicode="&#xbc;" horiz-adv-x="1699" 
d="M1486 289v-156h-120v-133h-224v133h-389v139l81 105l341 418h189v-506h122zM1146 289l1 79l4 146h-11q-30 -38 -81 -107q-18 -23 -45 -59l-42 -59h174zM485 788h-229v570q0 13 -7 10l-149 -45l-41 121q54 20 172 71q41 18 90 39l64 29h100v-795zM149 -43l1051 1679h143
l-1051 -1679h-143z" />
    <glyph glyph-name="onehalf" unicode="&#xbd;" horiz-adv-x="1699" 
d="M487 788h-229v570q0 13 -7 10l-149 -45l-41 121q54 20 172 71q41 18 90 39l64 29h100v-795zM149 -43l1051 1679h143l-1051 -1679h-143zM897 119q41 30 74 56q47 36 104 85q47 42 98 96q78 91 78 152q0 115 -131 115q-60 0 -123 -19l-59 -24l-5 188q95 41 244 41
q316 0 316 -246q0 -88 -45 -169q-36 -65 -105 -132q-5 -5 -13 -12l-36 -34q-27 -25 -49 -42h291v-174h-639v119z" />
    <glyph glyph-name="threequarters" unicode="&#xbe;" horiz-adv-x="1699" 
d="M1552 289v-156h-121v-133h-223v133h-389v139l80 105l342 418h188v-506h123zM1212 289v79l4 146h-10q-30 -38 -82 -107q-17 -23 -44 -59l-42 -59h174zM210 1260q213 0 213 92q0 80 -114 80q-29 0 -60 -7l-59 -14q-29 -8 -57 -25h-2l-7 179q114 32 228 32t196 -46
q103 -59 103 -169q0 -157 -170 -192v-2q205 -15 205 -187q0 -125 -113 -186q-88 -49 -225 -49q-118 0 -242 47l4 180h4q27 -16 62 -28q59 -23 135 -23q58 0 91 14q44 19 44 64q0 93 -236 84v156zM247 -43l1051 1679h143l-1050 -1679h-144z" />
    <glyph glyph-name="Agrave" unicode="&#xc0;" horiz-adv-x="1454" 
d="M459 229q-16 -39 -34 -83l-58 -140v-6h-389v6l719 1620h53l709 -1620v-6h-426v6l-88 223h-486zM834 532v5q-56 141 -89 234q-25 73 -38 120h-2q-12 -44 -39 -120q-33 -89 -92 -234v-5h260zM799 1690l-420 247l95 144l387 -301z" />
    <glyph glyph-name="Aacute" unicode="&#xc1;" horiz-adv-x="1454" 
d="M459 229q-16 -39 -34 -83l-58 -140v-6h-389v6l719 1620h53l709 -1620v-6h-426v6l-88 223h-486zM834 532v5q-56 141 -89 234q-25 73 -38 120h-2q-12 -44 -39 -120q-33 -89 -92 -234v-5h260zM582 1780l387 301l94 -144l-419 -247z" />
    <glyph glyph-name="Acircumflex" unicode="&#xc2;" horiz-adv-x="1454" 
d="M459 229q-16 -39 -34 -83l-58 -140v-6h-389v6l719 1620h53l709 -1620v-6h-426v6l-88 223h-486zM834 532v5q-56 141 -89 234q-25 73 -38 120h-2q-12 -44 -39 -120q-33 -89 -92 -234v-5h260zM982 1638l-252 177l-252 -175l-68 78l330 307l313 -311z" />
    <glyph glyph-name="Atilde" unicode="&#xc3;" horiz-adv-x="1454" 
d="M459 229q-16 -39 -34 -83l-58 -140v-6h-389v6l719 1620h53l709 -1620v-6h-426v6l-88 223h-486zM834 532v5q-56 141 -89 234q-25 73 -38 120h-2q-12 -44 -39 -120q-33 -89 -92 -234v-5h260zM392 1714q22 95 76 160q62 74 143 74q70 0 153 -62l58 -42q30 -17 61 -17
q70 0 101 104l96 -14q-28 -107 -80 -169q-57 -69 -133 -69q-73 0 -148 56q-86 65 -133 65q-62 0 -98 -104z" />
    <glyph glyph-name="Egrave" unicode="&#xc8;" horiz-adv-x="1112" 
d="M149 1597h850v-317h-471v-313h416v-318h-416v-330h483v-319h-862v1597zM688 1690l-420 247l94 144l387 -301z" />
    <glyph glyph-name="Eacute" unicode="&#xc9;" horiz-adv-x="1112" 
d="M149 1597h850v-317h-471v-313h416v-318h-416v-330h483v-319h-862v1597zM385 1780l387 301l94 -144l-420 -247z" />
    <glyph glyph-name="Ecircumflex" unicode="&#xca;" horiz-adv-x="1112" 
d="M149 1597h850v-317h-471v-313h416v-318h-416v-330h483v-319h-862v1597zM851 1679l-251 176l-252 -174l-68 78l330 307l313 -311z" />
    <glyph glyph-name="Igrave" unicode="&#xcc;" horiz-adv-x="679" 
d="M531 0h-381v1597h381v-1597zM412 1690l-420 247l94 144l387 -301z" />
    <glyph glyph-name="Iacute" unicode="&#xcd;" horiz-adv-x="679" 
d="M530 0h-381v1597h381v-1597zM194 1780l387 301l94 -144l-420 -247z" />
    <glyph glyph-name="Ograve" unicode="&#xd2;" 
d="M1746 807q0 -355 -237 -592q-239 -240 -600 -240q-356 0 -598 238q-242 237 -242 584t244 583q246 238 610 238q357 0 591 -233q232 -230 232 -576v-2zM1359 801q0 198 -125 333q-127 136 -319 136q-201 0 -330 -135q-129 -133 -129 -338q0 -203 127 -337
q130 -136 332 -136q199 0 323 137q121 134 121 338v2zM1001 1700l-420 248l94 143l387 -301z" />
    <glyph glyph-name="Oacute" unicode="&#xd3;" 
d="M1746 807q0 -355 -237 -592q-239 -240 -600 -240q-356 0 -598 238q-242 237 -242 584t244 583q246 238 610 238q357 0 591 -233q232 -230 232 -576v-2zM1359 801q0 198 -125 333q-127 136 -319 136q-201 0 -330 -135q-129 -133 -129 -338q0 -203 127 -337
q130 -136 332 -136q199 0 323 137q121 134 121 338v2zM743 1790l387 301l94 -143l-420 -248z" />
    <glyph glyph-name="Ocircumflex" unicode="&#xd4;" 
d="M1746 807q0 -355 -237 -592q-239 -240 -600 -240q-356 0 -598 238q-242 237 -242 584t244 583q246 238 610 238q357 0 591 -233q232 -230 232 -576v-2zM1359 801q0 198 -125 333q-127 136 -319 136q-201 0 -330 -135q-129 -133 -129 -338q0 -203 127 -337
q130 -136 332 -136q199 0 323 137q121 134 121 338v2zM1173 1679l-252 176l-252 -174l-68 78l330 307l314 -311z" />
    <glyph glyph-name="Otilde" unicode="&#xd5;" 
d="M1746 807q0 -355 -237 -592q-239 -240 -600 -240q-356 0 -598 238q-242 237 -242 584t244 583q246 238 610 238q357 0 591 -233q232 -230 232 -576v-2zM1359 801q0 198 -125 333q-127 136 -319 136q-201 0 -330 -135q-129 -133 -129 -338q0 -203 127 -337
q130 -136 332 -136q199 0 323 137q121 134 121 338v2zM573 1735q22 95 76 159q63 74 143 74q71 0 154 -61l57 -42q30 -18 61 -18q70 0 101 105l96 -15q-28 -106 -80 -168q-57 -69 -133 -69q-73 0 -148 55q-86 66 -133 66q-62 0 -98 -105z" />
    <glyph glyph-name="Ugrave" unicode="&#xd9;" horiz-adv-x="1595" 
d="M118 1597h387v-852q0 -212 45 -294q73 -129 256 -129q166 0 244 122q51 82 51 301v852h375v-852q0 -291 -66 -438q-63 -141 -214 -234q-168 -104 -382 -104q-481 0 -637 350q-35 78 -48 181q-11 89 -11 241v856zM870 1649l-420 247l94 144l387 -301z" />
    <glyph glyph-name="Uacute" unicode="&#xda;" horiz-adv-x="1595" 
d="M118 1597h387v-852q0 -212 45 -294q73 -129 256 -129q166 0 244 122q51 82 51 301v852h375v-852q0 -291 -66 -438q-63 -141 -214 -234q-168 -104 -382 -104q-481 0 -637 350q-35 78 -48 181q-11 89 -11 241v856zM693 1739l388 301l94 -144l-420 -247z" />
    <glyph glyph-name="Yacute" unicode="&#xdd;" horiz-adv-x="1368" 
d="M880 678v-678h-379v657l-539 936v4h426v-4l228 -407q48 -89 73 -144h4q26 57 72 139l239 412v4h404v-6zM591 1739l387 301l94 -144l-420 -247z" />
    <glyph glyph-name="agrave" unicode="&#xe0;" horiz-adv-x="1454" 
d="M459 229q-16 -39 -34 -83l-58 -140v-6h-389v6l719 1620h53l709 -1620v-6h-426v6l-88 223h-486zM834 532v5q-56 141 -89 234q-25 73 -38 120h-2q-12 -44 -39 -120q-33 -89 -92 -234v-5h260zM799 1690l-420 247l95 144l387 -301z" />
    <glyph glyph-name="aacute" unicode="&#xe1;" horiz-adv-x="1454" 
d="M459 229q-16 -39 -34 -83l-58 -140v-6h-389v6l719 1620h53l709 -1620v-6h-426v6l-88 223h-486zM834 532v5q-56 141 -89 234q-25 73 -38 120h-2q-12 -44 -39 -120q-33 -89 -92 -234v-5h260zM582 1780l387 301l94 -144l-419 -247z" />
    <glyph glyph-name="acircumflex" unicode="&#xe2;" horiz-adv-x="1454" 
d="M459 229q-16 -39 -34 -83l-58 -140v-6h-389v6l719 1620h53l709 -1620v-6h-426v6l-88 223h-486zM834 532v5q-56 141 -89 234q-25 73 -38 120h-2q-12 -44 -39 -120q-33 -89 -92 -234v-5h260zM982 1638l-252 177l-252 -175l-68 78l330 307l313 -311z" />
    <glyph glyph-name="atilde" unicode="&#xe3;" horiz-adv-x="1454" 
d="M459 229q-16 -39 -34 -83l-58 -140v-6h-389v6l719 1620h53l709 -1620v-6h-426v6l-88 223h-486zM834 532v5q-56 141 -89 234q-25 73 -38 120h-2q-12 -44 -39 -120q-33 -89 -92 -234v-5h260zM392 1714q22 95 76 160q62 74 143 74q70 0 153 -62l58 -42q30 -17 61 -17
q70 0 101 104l96 -14q-28 -107 -80 -169q-57 -69 -133 -69q-73 0 -148 56q-86 65 -133 65q-62 0 -98 -104z" />
    <glyph glyph-name="egrave" unicode="&#xe8;" horiz-adv-x="1112" 
d="M149 1597h850v-317h-471v-313h416v-318h-416v-330h483v-319h-862v1597zM688 1690l-420 247l94 144l387 -301z" />
    <glyph glyph-name="eacute" unicode="&#xe9;" horiz-adv-x="1112" 
d="M149 1597h850v-317h-471v-313h416v-318h-416v-330h483v-319h-862v1597zM385 1780l387 301l94 -144l-420 -247z" />
    <glyph glyph-name="ecircumflex" unicode="&#xea;" horiz-adv-x="1112" 
d="M149 1597h850v-317h-471v-313h416v-318h-416v-330h483v-319h-862v1597zM851 1679l-251 176l-252 -174l-68 78l330 307l313 -311z" />
    <glyph glyph-name="igrave" unicode="&#xec;" horiz-adv-x="679" 
d="M531 0h-381v1597h381v-1597zM412 1690l-420 247l94 144l387 -301z" />
    <glyph glyph-name="iacute" unicode="&#xed;" horiz-adv-x="679" 
d="M530 0h-381v1597h381v-1597zM194 1780l387 301l94 -144l-420 -247z" />
    <glyph glyph-name="ograve" unicode="&#xf2;" 
d="M1746 807q0 -355 -237 -592q-239 -240 -600 -240q-356 0 -598 238q-242 237 -242 584t244 583q246 238 610 238q357 0 591 -233q232 -230 232 -576v-2zM1359 801q0 198 -125 333q-127 136 -319 136q-201 0 -330 -135q-129 -133 -129 -338q0 -203 127 -337
q130 -136 332 -136q199 0 323 137q121 134 121 338v2zM1001 1700l-420 248l94 143l387 -301z" />
    <glyph glyph-name="oacute" unicode="&#xf3;" 
d="M1746 807q0 -355 -237 -592q-239 -240 -600 -240q-356 0 -598 238q-242 237 -242 584t244 583q246 238 610 238q357 0 591 -233q232 -230 232 -576v-2zM1359 801q0 198 -125 333q-127 136 -319 136q-201 0 -330 -135q-129 -133 -129 -338q0 -203 127 -337
q130 -136 332 -136q199 0 323 137q121 134 121 338v2zM743 1790l387 301l94 -143l-420 -248z" />
    <glyph glyph-name="ocircumflex" unicode="&#xf4;" 
d="M1746 807q0 -355 -237 -592q-239 -240 -600 -240q-356 0 -598 238q-242 237 -242 584t244 583q246 238 610 238q357 0 591 -233q232 -230 232 -576v-2zM1359 801q0 198 -125 333q-127 136 -319 136q-201 0 -330 -135q-129 -133 -129 -338q0 -203 127 -337
q130 -136 332 -136q199 0 323 137q121 134 121 338v2zM1173 1679l-252 176l-252 -174l-68 78l330 307l314 -311z" />
    <glyph glyph-name="otilde" unicode="&#xf5;" 
d="M1746 807q0 -355 -237 -592q-239 -240 -600 -240q-356 0 -598 238q-242 237 -242 584t244 583q246 238 610 238q357 0 591 -233q232 -230 232 -576v-2zM1359 801q0 198 -125 333q-127 136 -319 136q-201 0 -330 -135q-129 -133 -129 -338q0 -203 127 -337
q130 -136 332 -136q199 0 323 137q121 134 121 338v2zM573 1735q22 95 76 159q63 74 143 74q71 0 154 -61l57 -42q30 -18 61 -18q70 0 101 105l96 -15q-28 -106 -80 -168q-57 -69 -133 -69q-73 0 -148 55q-86 66 -133 66q-62 0 -98 -105z" />
    <glyph glyph-name="divide" unicode="&#xf7;" horiz-adv-x="1706" 
 />
    <glyph glyph-name="glyph216" unicode="&#xf9;" horiz-adv-x="1595" 
d="M118 1597h387v-852q0 -212 45 -294q73 -129 256 -129q166 0 244 122q51 82 51 301v852h375v-852q0 -291 -66 -438q-63 -141 -214 -234q-168 -104 -382 -104q-481 0 -637 350q-35 78 -48 181q-11 89 -11 241v856zM870 1649l-420 247l94 144l387 -301z" />
    <glyph glyph-name="glyph217" unicode="&#xfa;" horiz-adv-x="1595" 
d="M118 1597h387v-852q0 -212 45 -294q73 -129 256 -129q166 0 244 122q51 82 51 301v852h375v-852q0 -291 -66 -438q-63 -141 -214 -234q-168 -104 -382 -104q-481 0 -637 350q-35 78 -48 181q-11 89 -11 241v856zM693 1739l388 301l94 -144l-420 -247z" />
    <glyph glyph-name="glyph234" unicode="&#xfd;" horiz-adv-x="1368" 
d="M880 678v-678h-379v657l-539 936v4h426v-4l228 -407q48 -89 73 -144h4q26 57 72 139l239 412v4h404v-6zM591 1739l387 301l94 -144l-420 -247z" />
    <glyph glyph-name="Abreve" unicode="&#x102;" horiz-adv-x="1454" 
d="M459 229q-16 -39 -34 -83l-58 -140v-6h-389v6l719 1620h53l709 -1620v-6h-426v6l-88 223h-486zM834 532v5q-56 141 -89 234q-25 73 -38 120h-2q-12 -44 -39 -120q-33 -89 -92 -234v-5h260zM543 2019q35 -170 172 -170q152 0 183 170h131q-5 -126 -83 -214
q-87 -99 -231 -99q-135 0 -221 97q-78 88 -86 216h135z" />
    <glyph glyph-name="abreve" unicode="&#x103;" horiz-adv-x="1454" 
d="M459 229q-16 -39 -34 -83l-58 -140v-6h-389v6l719 1620h53l709 -1620v-6h-426v6l-88 223h-486zM834 532v5q-56 141 -89 234q-25 73 -38 120h-2q-12 -44 -39 -120q-33 -89 -92 -234v-5h260zM543 2019q35 -170 172 -170q152 0 183 170h131q-5 -126 -83 -214
q-87 -99 -231 -99q-135 0 -221 97q-78 88 -86 216h135z" />
    <glyph glyph-name="Ccaron" unicode="&#x10c;" horiz-adv-x="1274" 
 />
    <glyph glyph-name="ccaron" unicode="&#x10d;" horiz-adv-x="922" 
 />
    <glyph glyph-name="Dslash" unicode="&#x110;" horiz-adv-x="1558" 
d="M1100 819q0 113 -37 203q-29 70 -76 121q-116 125 -328 125q-26 0 -61 -3l-45 -3v-369h295v-164h-295v-377q0 -6 8 -8q40 -6 86 -6q194 0 322 131q59 61 91 138q40 94 40 210v2zM1493 834q0 -378 -242 -607q-134 -126 -305 -182q-159 -51 -385 -51q-125 0 -231 4l-156 10
v721h-170v164h170v696l20 2q13 1 27 3q38 3 80 5q47 4 127 7q90 4 151 4q479 0 711 -230q93 -90 145 -224q58 -147 58 -320v-2z" />
    <glyph glyph-name="dcroat" unicode="&#x111;" horiz-adv-x="1558" 
d="M1100 819q0 113 -37 203q-29 70 -76 121q-116 125 -328 125q-26 0 -61 -3l-45 -3v-369h295v-164h-295v-377q0 -6 8 -8q40 -6 86 -6q194 0 322 131q59 61 91 138q40 94 40 210v2zM1493 834q0 -378 -242 -607q-134 -126 -305 -182q-159 -51 -385 -51q-125 0 -231 4l-156 10
v721h-170v164h170v696l20 2q13 1 27 3q38 3 80 5q47 4 127 7q90 4 151 4q479 0 711 -230q93 -90 145 -224q58 -147 58 -320v-2z" />
    <glyph glyph-name="Itilde" unicode="&#x128;" horiz-adv-x="679" 
d="M529 0h-381v1597h381v-1597zM20 1714q22 95 77 160q62 74 142 74q71 0 154 -62l58 -42q29 -17 61 -17q69 0 100 104l96 -14q-28 -107 -79 -169q-58 -69 -134 -69q-73 0 -147 56q-87 65 -133 65q-63 0 -99 -104z" />
    <glyph glyph-name="itilde" unicode="&#x129;" horiz-adv-x="679" 
d="M529 0h-381v1597h381v-1597zM20 1714q22 95 77 160q62 74 142 74q71 0 154 -62l58 -42q29 -17 61 -17q69 0 100 104l96 -14q-28 -107 -79 -169q-58 -69 -134 -69q-73 0 -147 56q-87 65 -133 65q-63 0 -99 -104z" />
    <glyph glyph-name="Utilde" unicode="&#x168;" horiz-adv-x="1595" 
d="M118 1597h387v-852q0 -212 45 -294q73 -129 256 -129q166 0 244 122q51 82 51 301v852h375v-852q0 -291 -66 -438q-63 -141 -214 -234q-168 -104 -382 -104q-481 0 -637 350q-35 78 -48 181q-11 89 -11 241v856zM503 1735q22 95 76 159q62 74 143 74q70 0 153 -61l58 -42
q30 -18 61 -18q70 0 101 105l96 -15q-28 -106 -80 -168q-57 -69 -133 -69q-73 0 -148 55q-86 66 -133 66q-62 0 -98 -105z" />
    <glyph glyph-name="utilde" unicode="&#x169;" horiz-adv-x="1595" 
d="M118 1597h387v-852q0 -212 45 -294q73 -129 256 -129q166 0 244 122q51 82 51 301v852h375v-852q0 -291 -66 -438q-63 -141 -214 -234q-168 -104 -382 -104q-481 0 -637 350q-35 78 -48 181q-11 89 -11 241v856zM503 1735q22 95 76 159q62 74 143 74q70 0 153 -61l58 -42
q30 -18 61 -18q70 0 101 105l96 -15q-28 -106 -80 -168q-57 -69 -133 -69q-73 0 -148 55q-86 66 -133 66q-62 0 -98 -105z" />
    <glyph glyph-name="Ohorn" unicode="&#x1a0;" 
d="M1359 801q0 198 -126 333q-127 136 -319 136q-200 0 -330 -135q-128 -133 -128 -338q0 -203 127 -337q130 -136 331 -136q200 0 324 137q121 134 121 338v2zM1515 1384q231 -229 231 -575v-2q0 -355 -238 -592q-239 -240 -600 -240q-355 0 -598 238q-241 237 -241 584
t244 583q246 238 610 238q283 0 489 -147l39 16q52 29 71 57q-31 11 -56 37q-48 48 -48 116q0 67 48 114.5t115 47.5q55 0 96 -31q14 -9 25 -20q45 -45 45 -107q0 -29 -9 -54q-2 -2 -3 -6q-14 -60 -56 -116q-32 -42 -79 -81q-40 -34 -85 -60z" />
    <glyph glyph-name="ohorn" unicode="&#x1a1;" 
d="M1359 801q0 198 -126 333q-127 136 -319 136q-200 0 -330 -135q-128 -133 -128 -338q0 -203 127 -337q130 -136 331 -136q200 0 324 137q121 134 121 338v2zM1515 1384q231 -229 231 -575v-2q0 -355 -238 -592q-239 -240 -600 -240q-355 0 -598 238q-241 237 -241 584
t244 583q246 238 610 238q283 0 489 -147l39 16q52 29 71 57q-31 11 -56 37q-48 48 -48 116q0 67 48 114.5t115 47.5q55 0 96 -31q14 -9 25 -20q45 -45 45 -107q0 -29 -9 -54q-2 -2 -3 -6q-14 -60 -56 -116q-32 -42 -79 -81q-40 -34 -85 -60z" />
    <glyph glyph-name="Uhorn" unicode="&#x1af;" horiz-adv-x="1595" 
d="M1476 1349v-604q0 -291 -66 -438q-63 -141 -214 -234q-168 -104 -382 -104q-482 0 -637 350q-35 78 -48 181q-11 89 -11 241v856h387v-852q0 -212 45 -294q72 -129 256 -129q166 0 244 122q51 82 51 301v852h375v-116l15 6q52 29 71 57q-31 11 -56 37q-48 48 -48 116
q0 67 48 114.5t115 47.5q55 0 96 -31q14 -9 25 -20q45 -45 45 -107q0 -29 -9 -54q-2 -2 -3 -6q-14 -60 -56 -116q-32 -42 -79 -81q-72 -62 -164 -95z" />
    <glyph glyph-name="uhorn" unicode="&#x1b0;" horiz-adv-x="1595" 
d="M1476 1349v-604q0 -291 -66 -438q-63 -141 -214 -234q-168 -104 -382 -104q-482 0 -637 350q-35 78 -48 181q-11 89 -11 241v856h387v-852q0 -212 45 -294q72 -129 256 -129q166 0 244 122q51 82 51 301v852h375v-116l15 6q52 29 71 57q-31 11 -56 37q-48 48 -48 116
q0 67 48 114.5t115 47.5q55 0 96 -31q14 -9 25 -20q45 -45 45 -107q0 -29 -9 -54q-2 -2 -3 -6q-14 -60 -56 -116q-32 -42 -79 -81q-72 -62 -164 -95z" />
    <glyph glyph-name="uni1EA0" unicode="&#x1ea0;" horiz-adv-x="1454" 
d="M459 229q-16 -39 -34 -83l-58 -140v-6h-389v6l719 1620h53l709 -1620v-6h-426v6l-88 223h-486zM834 532v5q-56 141 -89 234q-25 73 -38 120h-2q-12 -44 -39 -120q-33 -89 -92 -234v-5h260zM601 -217q0 107 118 107q117 0 117 -109q0 -113 -117 -113q-118 0 -118 113v2z
" />
    <glyph glyph-name="uni1EA1" unicode="&#x1ea1;" horiz-adv-x="1454" 
d="M459 229q-16 -39 -34 -83l-58 -140v-6h-389v6l719 1620h53l709 -1620v-6h-426v6l-88 223h-486zM834 532v5q-56 141 -89 234q-25 73 -38 120h-2q-12 -44 -39 -120q-33 -89 -92 -234v-5h260zM601 -217q0 107 118 107q117 0 117 -109q0 -113 -117 -113q-118 0 -118 113v2z
" />
    <glyph glyph-name="uni1EA2" unicode="&#x1ea2;" horiz-adv-x="1454" 
d="M459 229q-16 -39 -34 -83l-58 -140v-6h-389v6l719 1620h53l709 -1620v-6h-426v6l-88 223h-486zM834 532v5q-56 141 -89 234q-25 73 -38 120h-2q-12 -44 -39 -120q-33 -89 -92 -234v-5h260zM736 2200q33 0 67 -7q38 -8 63 -23q83 -51 83 -156q0 -55 -30 -104
q-12 -20 -30 -41q-14 -16 -36 -37q-68 -68 -68 -135h-138q0 56 18 94q14 32 56 77q27 29 41 55q18 31 18 59q0 43 -38 62q-22 11 -52 11q-21 0 -31 -1q-14 -3 -26 -6l-21 -8l-2 144q20 7 60 13q26 3 65 3h1z" />
    <glyph glyph-name="uni1EA3" unicode="&#x1ea3;" horiz-adv-x="1454" 
d="M459 229q-16 -39 -34 -83l-58 -140v-6h-389v6l719 1620h53l709 -1620v-6h-426v6l-88 223h-486zM834 532v5q-56 141 -89 234q-25 73 -38 120h-2q-12 -44 -39 -120q-33 -89 -92 -234v-5h260zM736 2200q33 0 67 -7q38 -8 63 -23q83 -51 83 -156q0 -55 -30 -104
q-12 -20 -30 -41q-14 -16 -36 -37q-68 -68 -68 -135h-138q0 56 18 94q14 32 56 77q27 29 41 55q18 31 18 59q0 43 -38 62q-22 11 -52 11q-21 0 -31 -1q-14 -3 -26 -6l-21 -8l-2 144q20 7 60 13q26 3 65 3h1z" />
    <glyph glyph-name="uni1EA4" unicode="&#x1ea4;" horiz-adv-x="1454" 
d="M459 229q-16 -39 -34 -83l-58 -140v-6h-389v6l719 1620h53l709 -1620v-6h-426v6l-88 223h-486zM834 532v5q-56 141 -89 234q-25 73 -38 120h-2q-12 -44 -39 -120q-33 -89 -92 -234v-5h260zM488 2034l387 301l94 -144l-419 -247zM982 1638l-252 177l-252 -175l-68 78
l330 307l313 -311z" />
    <glyph glyph-name="uni1EA5" unicode="&#x1ea5;" horiz-adv-x="1454" 
d="M459 229q-16 -39 -34 -83l-58 -140v-6h-389v6l719 1620h53l709 -1620v-6h-426v6l-88 223h-486zM834 532v5q-56 141 -89 234q-25 73 -38 120h-2q-12 -44 -39 -120q-33 -89 -92 -234v-5h260zM488 2034l387 301l94 -144l-419 -247zM982 1638l-252 177l-252 -175l-68 78
l330 307l313 -311z" />
    <glyph glyph-name="uni1EA6" unicode="&#x1ea6;" horiz-adv-x="1454" 
d="M459 229q-16 -39 -34 -83l-58 -140v-6h-389v6l719 1620h53l709 -1620v-6h-426v6l-88 223h-486zM834 532v5q-56 141 -89 234q-25 73 -38 120h-2q-12 -44 -39 -120q-33 -89 -92 -234v-5h260zM969 1935l-420 247l95 144l387 -301zM982 1638l-252 177l-252 -175l-68 78
l330 307l313 -311z" />
    <glyph glyph-name="uni1EA7" unicode="&#x1ea7;" horiz-adv-x="1454" 
d="M459 229q-16 -39 -34 -83l-58 -140v-6h-389v6l719 1620h53l709 -1620v-6h-426v6l-88 223h-486zM834 532v5q-56 141 -89 234q-25 73 -38 120h-2q-12 -44 -39 -120q-33 -89 -92 -234v-5h260zM969 1935l-420 247l95 144l387 -301zM982 1638l-252 177l-252 -175l-68 78
l330 307l313 -311z" />
    <glyph glyph-name="uni1EA8" unicode="&#x1ea8;" horiz-adv-x="1454" 
d="M459 229q-16 -39 -34 -83l-58 -140v-6h-389v6l719 1620h53l709 -1620v-6h-426v6l-88 223h-486zM834 532v5q-56 141 -89 234q-25 73 -38 120h-2q-12 -44 -39 -120q-33 -89 -92 -234v-5h260zM982 2427q33 0 67 -7q38 -8 63 -23q83 -51 83 -156q0 -55 -30 -104
q-12 -20 -30 -41q-14 -16 -36 -37q-68 -68 -68 -135h-138q0 56 18 94q14 32 56 77q27 29 41 55q18 31 18 59q0 43 -38 62q-22 11 -52 11q-21 0 -31 -1q-14 -3 -26 -6l-21 -8l-2 144q20 7 60 13q26 3 65 3h1zM982 1638l-252 177l-252 -175l-68 78l330 307l313 -311z" />
    <glyph glyph-name="uni1EA9" unicode="&#x1ea9;" horiz-adv-x="1454" 
d="M459 229q-16 -39 -34 -83l-58 -140v-6h-389v6l719 1620h53l709 -1620v-6h-426v6l-88 223h-486zM834 532v5q-56 141 -89 234q-25 73 -38 120h-2q-12 -44 -39 -120q-33 -89 -92 -234v-5h260zM982 2427q33 0 67 -7q38 -8 63 -23q83 -51 83 -156q0 -55 -30 -104
q-12 -20 -30 -41q-14 -16 -36 -37q-68 -68 -68 -135h-138q0 56 18 94q14 32 56 77q27 29 41 55q18 31 18 59q0 43 -38 62q-22 11 -52 11q-21 0 -31 -1q-14 -3 -26 -6l-21 -8l-2 144q20 7 60 13q26 3 65 3h1zM982 1638l-252 177l-252 -175l-68 78l330 307l313 -311z" />
    <glyph glyph-name="uni1EAA" unicode="&#x1eaa;" horiz-adv-x="1454" 
d="M459 229q-16 -39 -34 -83l-58 -140v-6h-389v6l719 1620h53l709 -1620v-6h-426v6l-88 223h-486zM834 532v5q-56 141 -89 234q-25 73 -38 120h-2q-12 -44 -39 -120q-33 -89 -92 -234v-5h260zM486 2025q22 95 76 160q62 74 143 74q70 0 153 -62l58 -42q30 -17 61 -17
q70 0 101 104l96 -14q-28 -107 -80 -169q-57 -69 -133 -69q-73 0 -148 56q-86 65 -133 65q-62 0 -98 -104zM982 1638l-252 177l-252 -175l-68 78l330 307l313 -311z" />
    <glyph glyph-name="uni1EAB" unicode="&#x1eab;" horiz-adv-x="1454" 
d="M459 229q-16 -39 -34 -83l-58 -140v-6h-389v6l719 1620h53l709 -1620v-6h-426v6l-88 223h-486zM834 532v5q-56 141 -89 234q-25 73 -38 120h-2q-12 -44 -39 -120q-33 -89 -92 -234v-5h260zM486 2025q22 95 76 160q62 74 143 74q70 0 153 -62l58 -42q30 -17 61 -17
q70 0 101 104l96 -14q-28 -107 -80 -169q-57 -69 -133 -69q-73 0 -148 56q-86 65 -133 65q-62 0 -98 -104zM982 1638l-252 177l-252 -175l-68 78l330 307l313 -311z" />
    <glyph glyph-name="uni1EAC" unicode="&#x1eac;" horiz-adv-x="1454" 
d="M459 229q-16 -39 -34 -83l-58 -140v-6h-389v6l719 1620h53l709 -1620v-6h-426v6l-88 223h-486zM834 532v5q-56 141 -89 234q-25 73 -38 120h-2q-12 -44 -39 -120q-33 -89 -92 -234v-5h260zM601 -217q0 107 118 107q117 0 117 -109q0 -113 -117 -113q-118 0 -118 113v2z
M982 1638l-252 177l-252 -175l-68 78l330 307l313 -311z" />
    <glyph glyph-name="uni1EAD" unicode="&#x1ead;" horiz-adv-x="1454" 
d="M459 229q-16 -39 -34 -83l-58 -140v-6h-389v6l719 1620h53l709 -1620v-6h-426v6l-88 223h-486zM834 532v5q-56 141 -89 234q-25 73 -38 120h-2q-12 -44 -39 -120q-33 -89 -92 -234v-5h260zM601 -217q0 107 118 107q117 0 117 -109q0 -113 -117 -113q-118 0 -118 113v2z
M982 1638l-252 177l-252 -175l-68 78l330 307l313 -311z" />
    <glyph glyph-name="uni1EAE" unicode="&#x1eae;" horiz-adv-x="1454" 
d="M459 229q-16 -39 -34 -83l-58 -140v-6h-389v6l719 1620h53l709 -1620v-6h-426v6l-88 223h-486zM834 532v5q-56 141 -89 234q-25 73 -38 120h-2q-12 -44 -39 -120q-33 -89 -92 -234v-5h260zM572 2081l387 301l94 -144l-419 -247zM543 2019q35 -170 172 -170q152 0 183 170
h131q-5 -126 -83 -214q-87 -99 -231 -99q-135 0 -221 97q-78 88 -86 216h135z" />
    <glyph glyph-name="uni1EAF" unicode="&#x1eaf;" horiz-adv-x="1454" 
d="M459 229q-16 -39 -34 -83l-58 -140v-6h-389v6l719 1620h53l709 -1620v-6h-426v6l-88 223h-486zM834 532v5q-56 141 -89 234q-25 73 -38 120h-2q-12 -44 -39 -120q-33 -89 -92 -234v-5h260zM572 2081l387 301l94 -144l-419 -247zM543 2019q35 -170 172 -170q152 0 183 170
h131q-5 -126 -83 -214q-87 -99 -231 -99q-135 0 -221 97q-78 88 -86 216h135z" />
    <glyph glyph-name="uni1EB0" unicode="&#x1eb0;" horiz-adv-x="1454" 
d="M459 229q-16 -39 -34 -83l-58 -140v-6h-389v6l719 1620h53l709 -1620v-6h-426v6l-88 223h-486zM834 532v5q-56 141 -89 234q-25 73 -38 120h-2q-12 -44 -39 -120q-33 -89 -92 -234v-5h260zM828 2011l-420 247l95 144l387 -301zM543 2019q35 -170 172 -170q152 0 183 170
h131q-5 -126 -83 -214q-87 -99 -231 -99q-135 0 -221 97q-78 88 -86 216h135z" />
    <glyph glyph-name="uni1EB1" unicode="&#x1eb1;" horiz-adv-x="1454" 
d="M459 229q-16 -39 -34 -83l-58 -140v-6h-389v6l719 1620h53l709 -1620v-6h-426v6l-88 223h-486zM834 532v5q-56 141 -89 234q-25 73 -38 120h-2q-12 -44 -39 -120q-33 -89 -92 -234v-5h260zM828 2011l-420 247l95 144l387 -301zM543 2019q35 -170 172 -170q152 0 183 170
h131q-5 -126 -83 -214q-87 -99 -231 -99q-135 0 -221 97q-78 88 -86 216h135z" />
    <glyph glyph-name="uni1EB2" unicode="&#x1eb2;" horiz-adv-x="1454" 
d="M459 229q-16 -39 -34 -83l-58 -140v-6h-389v6l719 1620h53l709 -1620v-6h-426v6l-88 223h-486zM834 532v5q-56 141 -89 234q-25 73 -38 120h-2q-12 -44 -39 -120q-33 -89 -92 -234v-5h260zM746 2493q33 0 67 -7q38 -8 63 -23q83 -51 83 -156q0 -55 -30 -104
q-12 -20 -30 -41q-14 -16 -36 -37q-68 -68 -68 -135h-138q0 56 18 94q14 32 56 77q27 29 41 55q18 31 18 59q0 43 -38 62q-22 11 -52 11q-21 0 -31 -1q-14 -3 -26 -6l-21 -8l-2 144q20 7 60 13q26 3 65 3h1zM543 2019q35 -170 172 -170q152 0 183 170h131q-5 -126 -83 -214
q-87 -99 -231 -99q-135 0 -221 97q-78 88 -86 216h135z" />
    <glyph glyph-name="uni1EB3" unicode="&#x1eb3;" horiz-adv-x="1454" 
d="M459 229q-16 -39 -34 -83l-58 -140v-6h-389v6l719 1620h53l709 -1620v-6h-426v6l-88 223h-486zM834 532v5q-56 141 -89 234q-25 73 -38 120h-2q-12 -44 -39 -120q-33 -89 -92 -234v-5h260zM746 2493q33 0 67 -7q38 -8 63 -23q83 -51 83 -156q0 -55 -30 -104
q-12 -20 -30 -41q-14 -16 -36 -37q-68 -68 -68 -135h-138q0 56 18 94q14 32 56 77q27 29 41 55q18 31 18 59q0 43 -38 62q-22 11 -52 11q-21 0 -31 -1q-14 -3 -26 -6l-21 -8l-2 144q20 7 60 13q26 3 65 3h1zM543 2019q35 -170 172 -170q152 0 183 170h131q-5 -126 -83 -214
q-87 -99 -231 -99q-135 0 -221 97q-78 88 -86 216h135z" />
    <glyph glyph-name="uni1EB4" unicode="&#x1eb4;" horiz-adv-x="1454" 
d="M459 229q-16 -39 -34 -83l-58 -140v-6h-389v6l719 1620h53l709 -1620v-6h-426v6l-88 223h-486zM834 532v5q-56 141 -89 234q-25 73 -38 120h-2q-12 -44 -39 -120q-33 -89 -92 -234v-5h260zM463 2093q22 95 76 160q62 74 143 74q70 0 153 -62l58 -42q30 -17 61 -17
q70 0 101 104l96 -14q-28 -107 -80 -169q-57 -69 -133 -69q-73 0 -148 56q-86 65 -133 65q-62 0 -98 -104zM543 2019q35 -170 172 -170q152 0 183 170h131q-5 -126 -83 -214q-87 -99 -231 -99q-135 0 -221 97q-78 88 -86 216h135z" />
    <glyph glyph-name="uni1EB5" unicode="&#x1eb5;" horiz-adv-x="1454" 
d="M459 229q-16 -39 -34 -83l-58 -140v-6h-389v6l719 1620h53l709 -1620v-6h-426v6l-88 223h-486zM834 532v5q-56 141 -89 234q-25 73 -38 120h-2q-12 -44 -39 -120q-33 -89 -92 -234v-5h260zM463 2093q22 95 76 160q62 74 143 74q70 0 153 -62l58 -42q30 -17 61 -17
q70 0 101 104l96 -14q-28 -107 -80 -169q-57 -69 -133 -69q-73 0 -148 56q-86 65 -133 65q-62 0 -98 -104zM543 2019q35 -170 172 -170q152 0 183 170h131q-5 -126 -83 -214q-87 -99 -231 -99q-135 0 -221 97q-78 88 -86 216h135z" />
    <glyph glyph-name="uni1EB6" unicode="&#x1eb6;" horiz-adv-x="1454" 
d="M459 229q-16 -39 -34 -83l-58 -140v-6h-389v6l719 1620h53l709 -1620v-6h-426v6l-88 223h-486zM834 532v5q-56 141 -89 234q-25 73 -38 120h-2q-12 -44 -39 -120q-33 -89 -92 -234v-5h260zM601 -217q0 107 118 107q117 0 117 -109q0 -113 -117 -113q-118 0 -118 113v2z
M543 2019q35 -170 172 -170q152 0 183 170h131q-5 -126 -83 -214q-87 -99 -231 -99q-135 0 -221 97q-78 88 -86 216h135z" />
    <glyph glyph-name="uni1EB7" unicode="&#x1eb7;" horiz-adv-x="1454" 
d="M459 229q-16 -39 -34 -83l-58 -140v-6h-389v6l719 1620h53l709 -1620v-6h-426v6l-88 223h-486zM834 532v5q-56 141 -89 234q-25 73 -38 120h-2q-12 -44 -39 -120q-33 -89 -92 -234v-5h260zM601 -217q0 107 118 107q117 0 117 -109q0 -113 -117 -113q-118 0 -118 113v2z
M543 2019q35 -170 172 -170q152 0 183 170h131q-5 -126 -83 -214q-87 -99 -231 -99q-135 0 -221 97q-78 88 -86 216h135z" />
    <glyph glyph-name="uni1EB8" unicode="&#x1eb8;" horiz-adv-x="1112" 
d="M149 1597h850v-317h-471v-313h416v-318h-416v-330h483v-319h-862v1597zM458 -217q0 107 118 107q117 0 117 -109q0 -113 -117 -113q-118 0 -118 113v2z" />
    <glyph glyph-name="uni1EB9" unicode="&#x1eb9;" horiz-adv-x="1112" 
d="M149 1597h850v-317h-471v-313h416v-318h-416v-330h483v-319h-862v1597zM458 -217q0 107 118 107q117 0 117 -109q0 -113 -117 -113q-118 0 -118 113v2z" />
    <glyph glyph-name="uni1EBA" unicode="&#x1eba;" horiz-adv-x="1112" 
d="M149 1597h850v-317h-471v-313h416v-318h-416v-330h483v-319h-862v1597zM593 2181q33 0 66 -7q38 -8 64 -23q83 -51 83 -156q0 -55 -30 -104q-12 -20 -30 -41q-14 -16 -36 -37q-68 -68 -68 -135h-138q0 56 18 94q14 32 56 77q27 29 41 55q18 31 18 59q0 43 -38 62
q-22 11 -52 11q-22 0 -31 -1q-14 -3 -26 -6l-21 -8l-2 144q20 7 60 13q26 3 65 3h1z" />
    <glyph glyph-name="uni1EBB" unicode="&#x1ebb;" horiz-adv-x="1112" 
d="M149 1597h850v-317h-471v-313h416v-318h-416v-330h483v-319h-862v1597zM593 2181q33 0 66 -7q38 -8 64 -23q83 -51 83 -156q0 -55 -30 -104q-12 -20 -30 -41q-14 -16 -36 -37q-68 -68 -68 -135h-138q0 56 18 94q14 32 56 77q27 29 41 55q18 31 18 59q0 43 -38 62
q-22 11 -52 11q-22 0 -31 -1q-14 -3 -26 -6l-21 -8l-2 144q20 7 60 13q26 3 65 3h1z" />
    <glyph glyph-name="uni1EBC" unicode="&#x1ebc;" horiz-adv-x="1112" 
d="M149 1597h850v-317h-471v-313h416v-318h-416v-330h483v-319h-862v1597zM231 1714q22 95 76 160q62 74 143 74q70 0 153 -62l58 -42q30 -17 61 -17q70 0 101 104l96 -14q-28 -107 -80 -169q-57 -69 -133 -69q-73 0 -148 56q-86 65 -133 65q-62 0 -98 -104z" />
    <glyph glyph-name="uni1EBD" unicode="&#x1ebd;" horiz-adv-x="1112" 
d="M149 1597h850v-317h-471v-313h416v-318h-416v-330h483v-319h-862v1597zM231 1714q22 95 76 160q62 74 143 74q70 0 153 -62l58 -42q30 -17 61 -17q70 0 101 104l96 -14q-28 -107 -80 -169q-57 -69 -133 -69q-73 0 -148 56q-86 65 -133 65q-62 0 -98 -104z" />
    <glyph glyph-name="uni1EBE" unicode="&#x1ebe;" horiz-adv-x="1112" 
d="M149 1597h850v-317h-471v-313h416v-318h-416v-330h483v-319h-862v1597zM365 2088l387 301l94 -144l-420 -247zM851 1679l-251 176l-252 -174l-68 78l330 307l313 -311z" />
    <glyph glyph-name="uni1EBF" unicode="&#x1ebf;" horiz-adv-x="1112" 
d="M149 1597h850v-317h-471v-313h416v-318h-416v-330h483v-319h-862v1597zM365 2088l387 301l94 -144l-420 -247zM851 1679l-251 176l-252 -174l-68 78l330 307l313 -311z" />
    <glyph glyph-name="uni1EC0" unicode="&#x1ec0;" horiz-adv-x="1112" 
d="M149 1597h850v-317h-471v-313h416v-318h-416v-330h483v-319h-862v1597zM837 1979l-420 247l94 144l387 -301zM851 1679l-251 176l-252 -174l-68 78l330 307l313 -311z" />
    <glyph glyph-name="uni1EC1" unicode="&#x1ec1;" horiz-adv-x="1112" 
d="M149 1597h850v-317h-471v-313h416v-318h-416v-330h483v-319h-862v1597zM837 1979l-420 247l94 144l387 -301zM851 1679l-251 176l-252 -174l-68 78l330 307l313 -311z" />
    <glyph glyph-name="uni1EC2" unicode="&#x1ec2;" horiz-adv-x="1112" 
d="M149 1597h850v-317h-471v-313h416v-318h-416v-330h483v-319h-862v1597zM882 2460q33 0 66 -7q38 -8 64 -23q83 -51 83 -156q0 -55 -30 -104q-12 -20 -30 -41q-14 -16 -36 -37q-68 -68 -68 -135h-138q0 56 18 94q14 32 56 77q27 29 41 55q18 31 18 59q0 43 -38 62
q-22 11 -52 11q-22 0 -31 -1q-14 -3 -26 -6l-21 -8l-2 144q20 7 60 13q26 3 65 3h1zM851 1679l-251 176l-252 -174l-68 78l330 307l313 -311z" />
    <glyph glyph-name="uni1EC3" unicode="&#x1ec3;" horiz-adv-x="1112" 
d="M149 1597h850v-317h-471v-313h416v-318h-416v-330h483v-319h-862v1597zM882 2460q33 0 66 -7q38 -8 64 -23q83 -51 83 -156q0 -55 -30 -104q-12 -20 -30 -41q-14 -16 -36 -37q-68 -68 -68 -135h-138q0 56 18 94q14 32 56 77q27 29 41 55q18 31 18 59q0 43 -38 62
q-22 11 -52 11q-22 0 -31 -1q-14 -3 -26 -6l-21 -8l-2 144q20 7 60 13q26 3 65 3h1zM851 1679l-251 176l-252 -174l-68 78l330 307l313 -311z" />
    <glyph glyph-name="uni1EC4" unicode="&#x1ec4;" horiz-adv-x="1112" 
d="M149 1597h850v-317h-471v-313h416v-318h-416v-330h483v-319h-862v1597zM350 2072q22 95 76 160q62 74 143 74q70 0 153 -62l58 -42q30 -17 61 -17q70 0 101 104l96 -14q-28 -107 -80 -169q-57 -69 -133 -69q-73 0 -148 56q-86 65 -133 65q-62 0 -98 -104zM851 1679
l-251 176l-252 -174l-68 78l330 307l313 -311z" />
    <glyph glyph-name="uni1EC5" unicode="&#x1ec5;" horiz-adv-x="1112" 
d="M149 1597h850v-317h-471v-313h416v-318h-416v-330h483v-319h-862v1597zM350 2072q22 95 76 160q62 74 143 74q70 0 153 -62l58 -42q30 -17 61 -17q70 0 101 104l96 -14q-28 -107 -80 -169q-57 -69 -133 -69q-73 0 -148 56q-86 65 -133 65q-62 0 -98 -104zM851 1679
l-251 176l-252 -174l-68 78l330 307l313 -311z" />
    <glyph glyph-name="uni1EC6" unicode="&#x1ec6;" horiz-adv-x="1112" 
d="M149 1597h850v-317h-471v-313h416v-318h-416v-330h483v-319h-862v1597zM458 -217q0 107 118 107q117 0 117 -109q0 -113 -117 -113q-118 0 -118 113v2zM851 1679l-251 176l-252 -174l-68 78l330 307l313 -311z" />
    <glyph glyph-name="uni1EC7" unicode="&#x1ec7;" horiz-adv-x="1112" 
d="M149 1597h850v-317h-471v-313h416v-318h-416v-330h483v-319h-862v1597zM458 -217q0 107 118 107q117 0 117 -109q0 -113 -117 -113q-118 0 -118 113v2zM851 1679l-251 176l-252 -174l-68 78l330 307l313 -311z" />
    <glyph glyph-name="uni1EC8" unicode="&#x1ec8;" horiz-adv-x="679" 
d="M530 0h-381v1597h381v-1597zM324 2181q33 0 66 -7q38 -8 64 -23q83 -51 83 -156q0 -55 -30 -104q-12 -20 -30 -41q-14 -16 -36 -37q-68 -68 -68 -135h-138q0 56 18 94q14 32 56 77q27 29 41 55q18 31 18 59q0 43 -38 62q-22 11 -52 11q-22 0 -31 -1q-14 -3 -26 -6l-21 -8
l-2 144q20 7 60 13q26 3 65 3h1z" />
    <glyph glyph-name="uni1EC9" unicode="&#x1ec9;" horiz-adv-x="679" 
d="M530 0h-381v1597h381v-1597zM324 2181q33 0 66 -7q38 -8 64 -23q83 -51 83 -156q0 -55 -30 -104q-12 -20 -30 -41q-14 -16 -36 -37q-68 -68 -68 -135h-138q0 56 18 94q14 32 56 77q27 29 41 55q18 31 18 59q0 43 -38 62q-22 11 -52 11q-22 0 -31 -1q-14 -3 -26 -6l-21 -8
l-2 144q20 7 60 13q26 3 65 3h1z" />
    <glyph glyph-name="uni1ECA" unicode="&#x1eca;" horiz-adv-x="679" 
d="M530 0h-381v1597h381v-1597zM222 -217q0 107 118 107q117 0 117 -109q0 -113 -117 -113q-118 0 -118 113v2z" />
    <glyph glyph-name="uni1ECB" unicode="&#x1ecb;" horiz-adv-x="679" 
d="M530 0h-381v1597h381v-1597zM222 -217q0 107 118 107q117 0 117 -109q0 -113 -117 -113q-118 0 -118 113v2z" />
    <glyph glyph-name="uni1ECC" unicode="&#x1ecc;" 
d="M1746 807q0 -355 -237 -592q-239 -240 -600 -240q-356 0 -598 238q-242 237 -242 584t244 583q246 238 610 238q357 0 591 -233q232 -230 232 -576v-2zM1359 801q0 198 -125 333q-127 136 -319 136q-201 0 -330 -135q-129 -133 -129 -338q0 -203 127 -337
q130 -136 332 -136q199 0 323 137q121 134 121 338v2zM790 -217q0 107 119 107q116 0 116 -109q0 -113 -116 -113q-119 0 -119 113v2z" />
    <glyph glyph-name="uni1ECD" unicode="&#x1ecd;" 
d="M1746 807q0 -355 -237 -592q-239 -240 -600 -240q-356 0 -598 238q-242 237 -242 584t244 583q246 238 610 238q357 0 591 -233q232 -230 232 -576v-2zM1359 801q0 198 -125 333q-127 136 -319 136q-201 0 -330 -135q-129 -133 -129 -338q0 -203 127 -337
q130 -136 332 -136q199 0 323 137q121 134 121 338v2zM790 -217q0 107 119 107q116 0 116 -109q0 -113 -116 -113q-119 0 -119 113v2z" />
    <glyph glyph-name="uni1ECE" unicode="&#x1ece;" 
d="M1746 807q0 -355 -237 -592q-239 -240 -600 -240q-356 0 -598 238q-242 237 -242 584t244 583q246 238 610 238q357 0 591 -233q232 -230 232 -576v-2zM1359 801q0 198 -125 333q-127 136 -319 136q-201 0 -330 -135q-129 -133 -129 -338q0 -203 127 -337
q130 -136 332 -136q199 0 323 137q121 134 121 338v2zM881 2181q34 0 67 -7q38 -8 64 -23q83 -51 83 -156q0 -55 -30 -104q-12 -20 -31 -41q-13 -16 -35 -37q-68 -68 -68 -135h-138q0 56 17 94q15 32 57 77q27 29 41 55q18 31 18 59q0 43 -38 62q-22 11 -52 11q-22 0 -31 -1
q-14 -3 -26 -6l-21 -8l-3 144q21 7 61 13q26 3 65 3v0z" />
    <glyph glyph-name="uni1ECF" unicode="&#x1ecf;" 
d="M1746 807q0 -355 -237 -592q-239 -240 -600 -240q-356 0 -598 238q-242 237 -242 584t244 583q246 238 610 238q357 0 591 -233q232 -230 232 -576v-2zM1359 801q0 198 -125 333q-127 136 -319 136q-201 0 -330 -135q-129 -133 -129 -338q0 -203 127 -337
q130 -136 332 -136q199 0 323 137q121 134 121 338v2zM881 2181q34 0 67 -7q38 -8 64 -23q83 -51 83 -156q0 -55 -30 -104q-12 -20 -31 -41q-13 -16 -35 -37q-68 -68 -68 -135h-138q0 56 17 94q15 32 57 77q27 29 41 55q18 31 18 59q0 43 -38 62q-22 11 -52 11q-22 0 -31 -1
q-14 -3 -26 -6l-21 -8l-3 144q21 7 61 13q26 3 65 3v0z" />
    <glyph glyph-name="uni1ED0" unicode="&#x1ed0;" 
d="M1746 807q0 -355 -237 -592q-239 -240 -600 -240q-356 0 -598 238q-242 237 -242 584t244 583q246 238 610 238q357 0 591 -233q232 -230 232 -576v-2zM1359 801q0 198 -125 333q-127 136 -319 136q-201 0 -330 -135q-129 -133 -129 -338q0 -203 127 -337
q130 -136 332 -136q199 0 323 137q121 134 121 338v2zM673 2069l387 301l94 -143l-420 -248zM1173 1679l-252 176l-252 -174l-68 78l330 307l314 -311z" />
    <glyph glyph-name="uni1ED1" unicode="&#x1ed1;" 
d="M1746 807q0 -355 -237 -592q-239 -240 -600 -240q-356 0 -598 238q-242 237 -242 584t244 583q246 238 610 238q357 0 591 -233q232 -230 232 -576v-2zM1359 801q0 198 -125 333q-127 136 -319 136q-201 0 -330 -135q-129 -133 -129 -338q0 -203 127 -337
q130 -136 332 -136q199 0 323 137q121 134 121 338v2zM673 2069l387 301l94 -143l-420 -248zM1173 1679l-252 176l-252 -174l-68 78l330 307l314 -311z" />
    <glyph glyph-name="uni1ED2" unicode="&#x1ed2;" 
d="M1746 807q0 -355 -237 -592q-239 -240 -600 -240q-356 0 -598 238q-242 237 -242 584t244 583q246 238 610 238q357 0 591 -233q232 -230 232 -576v-2zM1359 801q0 198 -125 333q-127 136 -319 136q-201 0 -330 -135q-129 -133 -129 -338q0 -203 127 -337
q130 -136 332 -136q199 0 323 137q121 134 121 338v2zM1181 1968l-420 248l94 143l387 -301zM1173 1679l-252 176l-252 -174l-68 78l330 307l314 -311z" />
    <glyph glyph-name="uni1ED3" unicode="&#x1ed3;" 
d="M1746 807q0 -355 -237 -592q-239 -240 -600 -240q-356 0 -598 238q-242 237 -242 584t244 583q246 238 610 238q357 0 591 -233q232 -230 232 -576v-2zM1359 801q0 198 -125 333q-127 136 -319 136q-201 0 -330 -135q-129 -133 -129 -338q0 -203 127 -337
q130 -136 332 -136q199 0 323 137q121 134 121 338v2zM1181 1968l-420 248l94 143l387 -301zM1173 1679l-252 176l-252 -174l-68 78l330 307l314 -311z" />
    <glyph glyph-name="uni1ED4" unicode="&#x1ed4;" 
d="M1746 807q0 -355 -237 -592q-239 -240 -600 -240q-356 0 -598 238q-242 237 -242 584t244 583q246 238 610 238q357 0 591 -233q232 -230 232 -576v-2zM1359 801q0 198 -125 333q-127 136 -319 136q-201 0 -330 -135q-129 -133 -129 -338q0 -203 127 -337
q130 -136 332 -136q199 0 323 137q121 134 121 338v2zM1209 2420q34 0 67 -7q38 -8 64 -23q83 -51 83 -156q0 -55 -30 -104q-12 -20 -31 -41q-13 -16 -35 -37q-68 -68 -68 -135h-138q0 56 17 94q15 32 57 77q27 29 41 55q18 31 18 59q0 43 -38 62q-22 11 -52 11
q-22 0 -31 -1q-14 -3 -26 -6l-21 -8l-3 144q21 7 61 13q26 3 65 3v0zM1173 1679l-252 176l-252 -174l-68 78l330 307l314 -311z" />
    <glyph glyph-name="uni1ED5" unicode="&#x1ed5;" 
d="M1746 807q0 -355 -237 -592q-239 -240 -600 -240q-356 0 -598 238q-242 237 -242 584t244 583q246 238 610 238q357 0 591 -233q232 -230 232 -576v-2zM1359 801q0 198 -125 333q-127 136 -319 136q-201 0 -330 -135q-129 -133 -129 -338q0 -203 127 -337
q130 -136 332 -136q199 0 323 137q121 134 121 338v2zM1209 2420q34 0 67 -7q38 -8 64 -23q83 -51 83 -156q0 -55 -30 -104q-12 -20 -31 -41q-13 -16 -35 -37q-68 -68 -68 -135h-138q0 56 17 94q15 32 57 77q27 29 41 55q18 31 18 59q0 43 -38 62q-22 11 -52 11
q-22 0 -31 -1q-14 -3 -26 -6l-21 -8l-3 144q21 7 61 13q26 3 65 3v0zM1173 1679l-252 176l-252 -174l-68 78l330 307l314 -311z" />
    <glyph glyph-name="uni1ED6" unicode="&#x1ed6;" 
d="M1746 807q0 -355 -237 -592q-239 -240 -600 -240q-356 0 -598 238q-242 237 -242 584t244 583q246 238 610 238q357 0 591 -233q232 -230 232 -576v-2zM1359 801q0 198 -125 333q-127 136 -319 136q-201 0 -330 -135q-129 -133 -129 -338q0 -203 127 -337
q130 -136 332 -136q199 0 323 137q121 134 121 338v2zM693 2093q22 95 76 159q63 74 143 74q71 0 154 -61l57 -42q30 -18 61 -18q70 0 101 105l96 -15q-28 -106 -80 -168q-57 -69 -133 -69q-73 0 -148 55q-86 66 -133 66q-62 0 -98 -105zM1173 1679l-252 176l-252 -174
l-68 78l330 307l314 -311z" />
    <glyph glyph-name="uni1ED7" unicode="&#x1ed7;" 
d="M1746 807q0 -355 -237 -592q-239 -240 -600 -240q-356 0 -598 238q-242 237 -242 584t244 583q246 238 610 238q357 0 591 -233q232 -230 232 -576v-2zM1359 801q0 198 -125 333q-127 136 -319 136q-201 0 -330 -135q-129 -133 -129 -338q0 -203 127 -337
q130 -136 332 -136q199 0 323 137q121 134 121 338v2zM693 2093q22 95 76 159q63 74 143 74q71 0 154 -61l57 -42q30 -18 61 -18q70 0 101 105l96 -15q-28 -106 -80 -168q-57 -69 -133 -69q-73 0 -148 55q-86 66 -133 66q-62 0 -98 -105zM1173 1679l-252 176l-252 -174
l-68 78l330 307l314 -311z" />
    <glyph glyph-name="uni1ED8" unicode="&#x1ed8;" 
d="M1746 807q0 -355 -237 -592q-239 -240 -600 -240q-356 0 -598 238q-242 237 -242 584t244 583q246 238 610 238q357 0 591 -233q232 -230 232 -576v-2zM1359 801q0 198 -125 333q-127 136 -319 136q-201 0 -330 -135q-129 -133 -129 -338q0 -203 127 -337
q130 -136 332 -136q199 0 323 137q121 134 121 338v2zM790 -217q0 107 119 107q116 0 116 -109q0 -113 -116 -113q-119 0 -119 113v2zM1173 1679l-252 176l-252 -174l-68 78l330 307l314 -311z" />
    <glyph glyph-name="uni1ED9" unicode="&#x1ed9;" 
d="M1746 807q0 -355 -237 -592q-239 -240 -600 -240q-356 0 -598 238q-242 237 -242 584t244 583q246 238 610 238q357 0 591 -233q232 -230 232 -576v-2zM1359 801q0 198 -125 333q-127 136 -319 136q-201 0 -330 -135q-129 -133 -129 -338q0 -203 127 -337
q130 -136 332 -136q199 0 323 137q121 134 121 338v2zM790 -217q0 107 119 107q116 0 116 -109q0 -113 -116 -113q-119 0 -119 113v2zM1173 1679l-252 176l-252 -174l-68 78l330 307l314 -311z" />
    <glyph glyph-name="uni1EDA" unicode="&#x1eda;" 
d="M1359 801q0 198 -126 333q-127 136 -319 136q-200 0 -330 -135q-128 -133 -128 -338q0 -203 127 -337q130 -136 331 -136q200 0 324 137q121 134 121 338v2zM742 1790l387 301l95 -143l-420 -248zM1515 1384q231 -229 231 -575v-2q0 -355 -238 -592q-239 -240 -600 -240
q-355 0 -598 238q-241 237 -241 584t244 583q246 238 610 238q283 0 489 -147l39 16q52 29 71 57q-31 11 -56 37q-48 48 -48 116q0 67 48 114.5t115 47.5q55 0 96 -31q14 -9 25 -20q45 -45 45 -107q0 -29 -9 -54q-2 -2 -3 -6q-14 -60 -56 -116q-32 -42 -79 -81
q-40 -34 -85 -60z" />
    <glyph glyph-name="uni1EDB" unicode="&#x1edb;" 
d="M1359 801q0 198 -126 333q-127 136 -319 136q-200 0 -330 -135q-128 -133 -128 -338q0 -203 127 -337q130 -136 331 -136q200 0 324 137q121 134 121 338v2zM742 1790l387 301l95 -143l-420 -248zM1515 1384q231 -229 231 -575v-2q0 -355 -238 -592q-239 -240 -600 -240
q-355 0 -598 238q-241 237 -241 584t244 583q246 238 610 238q283 0 489 -147l39 16q52 29 71 57q-31 11 -56 37q-48 48 -48 116q0 67 48 114.5t115 47.5q55 0 96 -31q14 -9 25 -20q45 -45 45 -107q0 -29 -9 -54q-2 -2 -3 -6q-14 -60 -56 -116q-32 -42 -79 -81
q-40 -34 -85 -60z" />
    <glyph glyph-name="uni1EDC" unicode="&#x1edc;" 
d="M1359 801q0 198 -126 333q-127 136 -319 136q-200 0 -330 -135q-128 -133 -128 -338q0 -203 127 -337q130 -136 331 -136q200 0 324 137q121 134 121 338v2zM1000 1700l-419 248l94 143l387 -301zM1515 1384q231 -229 231 -575v-2q0 -355 -238 -592q-239 -240 -600 -240
q-355 0 -598 238q-241 237 -241 584t244 583q246 238 610 238q283 0 489 -147l39 16q52 29 71 57q-31 11 -56 37q-48 48 -48 116q0 67 48 114.5t115 47.5q55 0 96 -31q14 -9 25 -20q45 -45 45 -107q0 -29 -9 -54q-2 -2 -3 -6q-14 -60 -56 -116q-32 -42 -79 -81
q-40 -34 -85 -60z" />
    <glyph glyph-name="uni1EDD" unicode="&#x1edd;" 
d="M1359 801q0 198 -126 333q-127 136 -319 136q-200 0 -330 -135q-128 -133 -128 -338q0 -203 127 -337q130 -136 331 -136q200 0 324 137q121 134 121 338v2zM1000 1700l-419 248l94 143l387 -301zM1515 1384q231 -229 231 -575v-2q0 -355 -238 -592q-239 -240 -600 -240
q-355 0 -598 238q-241 237 -241 584t244 583q246 238 610 238q283 0 489 -147l39 16q52 29 71 57q-31 11 -56 37q-48 48 -48 116q0 67 48 114.5t115 47.5q55 0 96 -31q14 -9 25 -20q45 -45 45 -107q0 -29 -9 -54q-2 -2 -3 -6q-14 -60 -56 -116q-32 -42 -79 -81
q-40 -34 -85 -60z" />
    <glyph glyph-name="uni1EDE" unicode="&#x1ede;" 
d="M1359 801q0 198 -126 333q-127 136 -319 136q-200 0 -330 -135q-128 -133 -128 -338q0 -203 127 -337q130 -136 331 -136q200 0 324 137q121 134 121 338v2zM881 2181q34 0 67 -7q38 -8 64 -23q83 -51 83 -156q0 -55 -30 -104q-12 -20 -31 -41q-13 -16 -35 -37
q-68 -68 -68 -135h-139q0 56 18 94q15 32 57 77q27 29 41 55q17 31 17 59q0 43 -38 62q-21 11 -51 11q-22 0 -31 -1q-15 -3 -26 -6l-21 -8l-3 144q21 7 61 13q25 3 64 3h1zM1515 1384q231 -229 231 -575v-2q0 -355 -238 -592q-239 -240 -600 -240q-355 0 -598 238
q-241 237 -241 584t244 583q246 238 610 238q283 0 489 -147l39 16q52 29 71 57q-31 11 -56 37q-48 48 -48 116q0 67 48 114.5t115 47.5q55 0 96 -31q14 -9 25 -20q45 -45 45 -107q0 -29 -9 -54q-2 -2 -3 -6q-14 -60 -56 -116q-32 -42 -79 -81q-40 -34 -85 -60z" />
    <glyph glyph-name="uni1EDF" unicode="&#x1edf;" 
d="M1359 801q0 198 -126 333q-127 136 -319 136q-200 0 -330 -135q-128 -133 -128 -338q0 -203 127 -337q130 -136 331 -136q200 0 324 137q121 134 121 338v2zM881 2181q34 0 67 -7q38 -8 64 -23q83 -51 83 -156q0 -55 -30 -104q-12 -20 -31 -41q-13 -16 -35 -37
q-68 -68 -68 -135h-139q0 56 18 94q15 32 57 77q27 29 41 55q17 31 17 59q0 43 -38 62q-21 11 -51 11q-22 0 -31 -1q-15 -3 -26 -6l-21 -8l-3 144q21 7 61 13q25 3 64 3h1zM1515 1384q231 -229 231 -575v-2q0 -355 -238 -592q-239 -240 -600 -240q-355 0 -598 238
q-241 237 -241 584t244 583q246 238 610 238q283 0 489 -147l39 16q52 29 71 57q-31 11 -56 37q-48 48 -48 116q0 67 48 114.5t115 47.5q55 0 96 -31q14 -9 25 -20q45 -45 45 -107q0 -29 -9 -54q-2 -2 -3 -6q-14 -60 -56 -116q-32 -42 -79 -81q-40 -34 -85 -60z" />
    <glyph glyph-name="uni1EE0" unicode="&#x1ee0;" 
d="M1359 801q0 198 -126 333q-127 136 -319 136q-200 0 -330 -135q-128 -133 -128 -338q0 -203 127 -337q130 -136 331 -136q200 0 324 137q121 134 121 338v2zM572 1735q23 95 77 159q62 74 143 74q70 0 153 -61l58 -42q30 -18 61 -18q70 0 100 105l97 -15
q-28 -106 -80 -168q-57 -69 -133 -69q-73 0 -148 55q-86 66 -133 66q-62 0 -98 -105zM1515 1384q231 -229 231 -575v-2q0 -355 -238 -592q-239 -240 -600 -240q-355 0 -598 238q-241 237 -241 584t244 583q246 238 610 238q283 0 489 -147l39 16q52 29 71 57q-31 11 -56 37
q-48 48 -48 116q0 67 48 114.5t115 47.5q55 0 96 -31q14 -9 25 -20q45 -45 45 -107q0 -29 -9 -54q-2 -2 -3 -6q-14 -60 -56 -116q-32 -42 -79 -81q-40 -34 -85 -60z" />
    <glyph glyph-name="uni1EE1" unicode="&#x1ee1;" 
d="M1359 801q0 198 -126 333q-127 136 -319 136q-200 0 -330 -135q-128 -133 -128 -338q0 -203 127 -337q130 -136 331 -136q200 0 324 137q121 134 121 338v2zM572 1735q23 95 77 159q62 74 143 74q70 0 153 -61l58 -42q30 -18 61 -18q70 0 100 105l97 -15
q-28 -106 -80 -168q-57 -69 -133 -69q-73 0 -148 55q-86 66 -133 66q-62 0 -98 -105zM1515 1384q231 -229 231 -575v-2q0 -355 -238 -592q-239 -240 -600 -240q-355 0 -598 238q-241 237 -241 584t244 583q246 238 610 238q283 0 489 -147l39 16q52 29 71 57q-31 11 -56 37
q-48 48 -48 116q0 67 48 114.5t115 47.5q55 0 96 -31q14 -9 25 -20q45 -45 45 -107q0 -29 -9 -54q-2 -2 -3 -6q-14 -60 -56 -116q-32 -42 -79 -81q-40 -34 -85 -60z" />
    <glyph glyph-name="uni1EE2" unicode="&#x1ee2;" 
d="M1359 801q0 198 -126 333q-127 136 -319 136q-200 0 -330 -135q-128 -133 -128 -338q0 -203 127 -337q130 -136 331 -136q200 0 324 137q121 134 121 338v2zM790 -217q0 107 118 107q117 0 117 -109q0 -113 -117 -113q-118 0 -118 113v2zM1515 1384q231 -229 231 -575v-2
q0 -355 -238 -592q-239 -240 -600 -240q-355 0 -598 238q-241 237 -241 584t244 583q246 238 610 238q283 0 489 -147l39 16q52 29 71 57q-31 11 -56 37q-48 48 -48 116q0 67 48 114.5t115 47.5q55 0 96 -31q14 -9 25 -20q45 -45 45 -107q0 -29 -9 -54q-2 -2 -3 -6
q-14 -60 -56 -116q-32 -42 -79 -81q-40 -34 -85 -60z" />
    <glyph glyph-name="uni1EE3" unicode="&#x1ee3;" 
d="M1359 801q0 198 -126 333q-127 136 -319 136q-200 0 -330 -135q-128 -133 -128 -338q0 -203 127 -337q130 -136 331 -136q200 0 324 137q121 134 121 338v2zM790 -217q0 107 118 107q117 0 117 -109q0 -113 -117 -113q-118 0 -118 113v2zM1515 1384q231 -229 231 -575v-2
q0 -355 -238 -592q-239 -240 -600 -240q-355 0 -598 238q-241 237 -241 584t244 583q246 238 610 238q283 0 489 -147l39 16q52 29 71 57q-31 11 -56 37q-48 48 -48 116q0 67 48 114.5t115 47.5q55 0 96 -31q14 -9 25 -20q45 -45 45 -107q0 -29 -9 -54q-2 -2 -3 -6
q-14 -60 -56 -116q-32 -42 -79 -81q-40 -34 -85 -60z" />
    <glyph glyph-name="uni1EE4" unicode="&#x1ee4;" horiz-adv-x="1595" 
d="M118 1597h387v-852q0 -212 45 -294q73 -129 256 -129q166 0 244 122q51 82 51 301v852h375v-852q0 -291 -66 -438q-63 -141 -214 -234q-168 -104 -382 -104q-481 0 -637 350q-35 78 -48 181q-11 89 -11 241v856zM679 -217q0 107 119 107q117 0 117 -109q0 -113 -117 -113
q-119 0 -119 113v2z" />
    <glyph glyph-name="uni1EE5" unicode="&#x1ee5;" horiz-adv-x="1595" 
d="M118 1597h387v-852q0 -212 45 -294q73 -129 256 -129q166 0 244 122q51 82 51 301v852h375v-852q0 -291 -66 -438q-63 -141 -214 -234q-168 -104 -382 -104q-481 0 -637 350q-35 78 -48 181q-11 89 -11 241v856zM679 -217q0 107 119 107q117 0 117 -109q0 -113 -117 -113
q-119 0 -119 113v2z" />
    <glyph glyph-name="uni1EE6" unicode="&#x1ee6;" horiz-adv-x="1595" 
d="M118 1597h387v-852q0 -212 45 -294q73 -129 256 -129q166 0 244 122q51 82 51 301v852h375v-852q0 -291 -66 -438q-63 -141 -214 -234q-168 -104 -382 -104q-481 0 -637 350q-35 78 -48 181q-11 89 -11 241v856zM832 2181q34 0 67 -7q38 -8 64 -23q83 -51 83 -156
q0 -55 -30 -104q-12 -20 -31 -41q-13 -16 -35 -37q-68 -68 -68 -135h-139q0 56 18 94q15 32 57 77q27 29 41 55q18 31 18 59q0 43 -38 62q-22 11 -52 11q-22 0 -31 -1q-14 -3 -26 -6l-21 -8l-3 144q21 7 61 13q25 3 64 3h1z" />
    <glyph glyph-name="uni1EE7" unicode="&#x1ee7;" horiz-adv-x="1595" 
d="M118 1597h387v-852q0 -212 45 -294q73 -129 256 -129q166 0 244 122q51 82 51 301v852h375v-852q0 -291 -66 -438q-63 -141 -214 -234q-168 -104 -382 -104q-481 0 -637 350q-35 78 -48 181q-11 89 -11 241v856zM832 2181q34 0 67 -7q38 -8 64 -23q83 -51 83 -156
q0 -55 -30 -104q-12 -20 -31 -41q-13 -16 -35 -37q-68 -68 -68 -135h-139q0 56 18 94q15 32 57 77q27 29 41 55q18 31 18 59q0 43 -38 62q-22 11 -52 11q-22 0 -31 -1q-14 -3 -26 -6l-21 -8l-3 144q21 7 61 13q25 3 64 3h1z" />
    <glyph glyph-name="uni1EE8" unicode="&#x1ee8;" horiz-adv-x="1595" 
d="M693 1739l387 301l95 -144l-420 -247zM1476 1349v-604q0 -291 -66 -438q-63 -141 -214 -234q-168 -104 -382 -104q-482 0 -637 350q-35 78 -48 181q-11 89 -11 241v856h387v-852q0 -212 45 -294q72 -129 256 -129q166 0 244 122q51 82 51 301v852h375v-116l15 6
q52 29 71 57q-31 11 -56 37q-48 48 -48 116q0 67 48 114.5t115 47.5q55 0 96 -31q14 -9 25 -20q45 -45 45 -107q0 -29 -9 -54q-2 -2 -3 -6q-14 -60 -56 -116q-32 -42 -79 -81q-72 -62 -164 -95z" />
    <glyph glyph-name="uni1EE9" unicode="&#x1ee9;" horiz-adv-x="1595" 
d="M693 1739l387 301l95 -144l-420 -247zM1476 1349v-604q0 -291 -66 -438q-63 -141 -214 -234q-168 -104 -382 -104q-482 0 -637 350q-35 78 -48 181q-11 89 -11 241v856h387v-852q0 -212 45 -294q72 -129 256 -129q166 0 244 122q51 82 51 301v852h375v-116l15 6
q52 29 71 57q-31 11 -56 37q-48 48 -48 116q0 67 48 114.5t115 47.5q55 0 96 -31q14 -9 25 -20q45 -45 45 -107q0 -29 -9 -54q-2 -2 -3 -6q-14 -60 -56 -116q-32 -42 -79 -81q-72 -62 -164 -95z" />
    <glyph glyph-name="uni1EEA" unicode="&#x1eea;" horiz-adv-x="1595" 
d="M869 1649l-419 247l94 144l387 -301zM1476 1349v-604q0 -291 -66 -438q-63 -141 -214 -234q-168 -104 -382 -104q-482 0 -637 350q-35 78 -48 181q-11 89 -11 241v856h387v-852q0 -212 45 -294q72 -129 256 -129q166 0 244 122q51 82 51 301v852h375v-116l15 6
q52 29 71 57q-31 11 -56 37q-48 48 -48 116q0 67 48 114.5t115 47.5q55 0 96 -31q14 -9 25 -20q45 -45 45 -107q0 -29 -9 -54q-2 -2 -3 -6q-14 -60 -56 -116q-32 -42 -79 -81q-72 -62 -164 -95z" />
    <glyph glyph-name="uni1EEB" unicode="&#x1eeb;" horiz-adv-x="1595" 
d="M869 1649l-419 247l94 144l387 -301zM1476 1349v-604q0 -291 -66 -438q-63 -141 -214 -234q-168 -104 -382 -104q-482 0 -637 350q-35 78 -48 181q-11 89 -11 241v856h387v-852q0 -212 45 -294q72 -129 256 -129q166 0 244 122q51 82 51 301v852h375v-116l15 6
q52 29 71 57q-31 11 -56 37q-48 48 -48 116q0 67 48 114.5t115 47.5q55 0 96 -31q14 -9 25 -20q45 -45 45 -107q0 -29 -9 -54q-2 -2 -3 -6q-14 -60 -56 -116q-32 -42 -79 -81q-72 -62 -164 -95z" />
    <glyph glyph-name="uni1EEC" unicode="&#x1eec;" horiz-adv-x="1595" 
d="M832 2181q34 0 67 -7q38 -8 64 -23q83 -51 83 -156q0 -55 -30 -104q-12 -20 -31 -41q-13 -16 -35 -37q-68 -68 -68 -135h-139q0 56 18 94q15 32 57 77q27 29 41 55q17 31 17 59q0 43 -38 62q-21 11 -51 11q-22 0 -31 -1q-15 -3 -26 -6l-21 -8l-3 144q21 7 61 13
q25 3 64 3h1zM1476 1349v-604q0 -291 -66 -438q-63 -141 -214 -234q-168 -104 -382 -104q-482 0 -637 350q-35 78 -48 181q-11 89 -11 241v856h387v-852q0 -212 45 -294q72 -129 256 -129q166 0 244 122q51 82 51 301v852h375v-116l15 6q52 29 71 57q-31 11 -56 37
q-48 48 -48 116q0 67 48 114.5t115 47.5q55 0 96 -31q14 -9 25 -20q45 -45 45 -107q0 -29 -9 -54q-2 -2 -3 -6q-14 -60 -56 -116q-32 -42 -79 -81q-72 -62 -164 -95z" />
    <glyph glyph-name="uni1EED" unicode="&#x1eed;" horiz-adv-x="1595" 
d="M832 2181q34 0 67 -7q38 -8 64 -23q83 -51 83 -156q0 -55 -30 -104q-12 -20 -31 -41q-13 -16 -35 -37q-68 -68 -68 -135h-139q0 56 18 94q15 32 57 77q27 29 41 55q17 31 17 59q0 43 -38 62q-21 11 -51 11q-22 0 -31 -1q-15 -3 -26 -6l-21 -8l-3 144q21 7 61 13
q25 3 64 3h1zM1476 1349v-604q0 -291 -66 -438q-63 -141 -214 -234q-168 -104 -382 -104q-482 0 -637 350q-35 78 -48 181q-11 89 -11 241v856h387v-852q0 -212 45 -294q72 -129 256 -129q166 0 244 122q51 82 51 301v852h375v-116l15 6q52 29 71 57q-31 11 -56 37
q-48 48 -48 116q0 67 48 114.5t115 47.5q55 0 96 -31q14 -9 25 -20q45 -45 45 -107q0 -29 -9 -54q-2 -2 -3 -6q-14 -60 -56 -116q-32 -42 -79 -81q-72 -62 -164 -95z" />
    <glyph glyph-name="uni1EEE" unicode="&#x1eee;" horiz-adv-x="1595" 
d="M502 1735q23 95 77 159q62 74 143 74q70 0 153 -61l58 -42q30 -18 61 -18q70 0 100 105l97 -15q-28 -106 -80 -168q-57 -69 -133 -69q-73 0 -148 55q-86 66 -133 66q-62 0 -98 -105zM1476 1349v-604q0 -291 -66 -438q-63 -141 -214 -234q-168 -104 -382 -104
q-482 0 -637 350q-35 78 -48 181q-11 89 -11 241v856h387v-852q0 -212 45 -294q72 -129 256 -129q166 0 244 122q51 82 51 301v852h375v-116l15 6q52 29 71 57q-31 11 -56 37q-48 48 -48 116q0 67 48 114.5t115 47.5q55 0 96 -31q14 -9 25 -20q45 -45 45 -107q0 -29 -9 -54
q-2 -2 -3 -6q-14 -60 -56 -116q-32 -42 -79 -81q-72 -62 -164 -95z" />
    <glyph glyph-name="uni1EEF" unicode="&#x1eef;" horiz-adv-x="1595" 
d="M502 1735q23 95 77 159q62 74 143 74q70 0 153 -61l58 -42q30 -18 61 -18q70 0 100 105l97 -15q-28 -106 -80 -168q-57 -69 -133 -69q-73 0 -148 55q-86 66 -133 66q-62 0 -98 -105zM1476 1349v-604q0 -291 -66 -438q-63 -141 -214 -234q-168 -104 -382 -104
q-482 0 -637 350q-35 78 -48 181q-11 89 -11 241v856h387v-852q0 -212 45 -294q72 -129 256 -129q166 0 244 122q51 82 51 301v852h375v-116l15 6q52 29 71 57q-31 11 -56 37q-48 48 -48 116q0 67 48 114.5t115 47.5q55 0 96 -31q14 -9 25 -20q45 -45 45 -107q0 -29 -9 -54
q-2 -2 -3 -6q-14 -60 -56 -116q-32 -42 -79 -81q-72 -62 -164 -95z" />
    <glyph glyph-name="uni1EF0" unicode="&#x1ef0;" horiz-adv-x="1595" 
d="M679 -217q0 107 119 107q116 0 116 -109q0 -113 -116 -113q-119 0 -119 113v2zM1476 1349v-604q0 -291 -66 -438q-63 -141 -214 -234q-168 -104 -382 -104q-482 0 -637 350q-35 78 -48 181q-11 89 -11 241v856h387v-852q0 -212 45 -294q72 -129 256 -129q166 0 244 122
q51 82 51 301v852h375v-116l15 6q52 29 71 57q-31 11 -56 37q-48 48 -48 116q0 67 48 114.5t115 47.5q55 0 96 -31q14 -9 25 -20q45 -45 45 -107q0 -29 -9 -54q-2 -2 -3 -6q-14 -60 -56 -116q-32 -42 -79 -81q-72 -62 -164 -95z" />
    <glyph glyph-name="uni1EF1" unicode="&#x1ef1;" horiz-adv-x="1595" 
d="M679 -217q0 107 119 107q116 0 116 -109q0 -113 -116 -113q-119 0 -119 113v2zM1476 1349v-604q0 -291 -66 -438q-63 -141 -214 -234q-168 -104 -382 -104q-482 0 -637 350q-35 78 -48 181q-11 89 -11 241v856h387v-852q0 -212 45 -294q72 -129 256 -129q166 0 244 122
q51 82 51 301v852h375v-116l15 6q52 29 71 57q-31 11 -56 37q-48 48 -48 116q0 67 48 114.5t115 47.5q55 0 96 -31q14 -9 25 -20q45 -45 45 -107q0 -29 -9 -54q-2 -2 -3 -6q-14 -60 -56 -116q-32 -42 -79 -81q-72 -62 -164 -95z" />
    <glyph glyph-name="Ygrave" unicode="&#x1ef2;" horiz-adv-x="1368" 
d="M880 678v-678h-379v657l-539 936v4h426v-4l228 -407q48 -89 73 -144h4q26 57 72 139l239 412v4h404v-6zM871 1649l-420 247l95 144l387 -301z" />
    <glyph glyph-name="ygrave" unicode="&#x1ef3;" horiz-adv-x="1368" 
d="M880 678v-678h-379v657l-539 936v4h426v-4l228 -407q48 -89 73 -144h4q26 57 72 139l239 412v4h404v-6zM871 1649l-420 247l95 144l387 -301z" />
    <glyph glyph-name="uni1EF4" unicode="&#x1ef4;" horiz-adv-x="1368" 
d="M880 678v-678h-379v657l-539 936v4h426v-4l228 -407q48 -89 73 -144h4q26 57 72 139l239 412v4h404v-6zM571 -217q0 107 119 107q116 0 116 -109q0 -113 -116 -113q-119 0 -119 113v2z" />
    <glyph glyph-name="uni1EF5" unicode="&#x1ef5;" horiz-adv-x="1368" 
d="M880 678v-678h-379v657l-539 936v4h426v-4l228 -407q48 -89 73 -144h4q26 57 72 139l239 412v4h404v-6zM571 -217q0 107 119 107q116 0 116 -109q0 -113 -116 -113q-119 0 -119 113v2z" />
    <glyph glyph-name="uni1EF6" unicode="&#x1ef6;" horiz-adv-x="1368" 
d="M880 678v-678h-379v657l-539 936v4h426v-4l228 -407q48 -89 73 -144h4q26 57 72 139l239 412v4h404v-6zM725 2181q33 0 67 -7q38 -8 63 -23q84 -51 84 -156q0 -55 -30 -104q-12 -20 -31 -41q-13 -16 -35 -37q-68 -68 -68 -135h-139q0 56 18 94q15 32 56 77q28 29 42 55
q17 31 17 59q0 43 -38 62q-21 11 -51 11q-22 0 -31 -1q-15 -3 -26 -6l-21 -8l-3 144q21 7 61 13q25 3 64 3h1z" />
    <glyph glyph-name="uni1EF7" unicode="&#x1ef7;" horiz-adv-x="1368" 
d="M880 678v-678h-379v657l-539 936v4h426v-4l228 -407q48 -89 73 -144h4q26 57 72 139l239 412v4h404v-6zM725 2181q33 0 67 -7q38 -8 63 -23q84 -51 84 -156q0 -55 -30 -104q-12 -20 -31 -41q-13 -16 -35 -37q-68 -68 -68 -135h-139q0 56 18 94q15 32 56 77q28 29 42 55
q17 31 17 59q0 43 -38 62q-21 11 -51 11q-22 0 -31 -1q-15 -3 -26 -6l-21 -8l-3 144q21 7 61 13q25 3 64 3h1z" />
    <glyph glyph-name="uni1EF8" unicode="&#x1ef8;" horiz-adv-x="1368" 
d="M880 678v-678h-379v657l-539 936v4h426v-4l228 -407q48 -89 73 -144h4q26 57 72 139l239 412v4h404v-6zM424 1735q22 95 77 159q62 74 142 74q71 0 154 -61l58 -42q30 -18 61 -18q70 0 100 105l96 -15q-27 -106 -79 -168q-57 -69 -134 -69q-72 0 -147 55q-86 66 -133 66
q-63 0 -98 -105z" />
    <glyph glyph-name="uni1EF9" unicode="&#x1ef9;" horiz-adv-x="1368" 
d="M880 678v-678h-379v657l-539 936v4h426v-4l228 -407q48 -89 73 -144h4q26 57 72 139l239 412v4h404v-6zM424 1735q22 95 77 159q62 74 142 74q71 0 154 -61l58 -42q30 -18 61 -18q70 0 100 105l96 -15q-27 -106 -79 -168q-57 -69 -134 -69q-72 0 -147 55q-86 66 -133 66
q-63 0 -98 -105z" />
    <glyph glyph-name="quoteleft" unicode="&#x2018;" horiz-adv-x="542" 
d="M260 985q-67 0 -112 46q-52 53 -52 149q0 136 90 258q82 113 191 176l43 -47q-38 -41 -70 -90q-51 -84 -51 -148q0 -8 8 -12q2 -2 7 -3l7 -3q109 -32 109 -158q0 -72 -51 -121q-49 -47 -117 -47h-2z" />
    <glyph glyph-name="quoteright" unicode="&#x2019;" horiz-adv-x="542" 
d="M266 1614q67 0 112 -46q52 -53 52 -149q0 -136 -90 -258q-82 -113 -191 -176l-43 47q38 40 70 90q51 84 51 148q0 7 -8 12q-3 1 -7 3l-7 3q-109 32 -109 158q0 72 51 121q49 47 117 47h2z" />
    <glyph glyph-name="quotedblleft" unicode="&#x201c;" horiz-adv-x="962" 
d="M260 985q-67 0 -112 46q-52 53 -52 149q0 136 90 258q82 113 191 176l43 -47q-38 -41 -70 -90q-51 -84 -51 -148q0 -8 8 -12q2 -2 7 -3l7 -3q109 -32 109 -158q0 -72 -51 -121q-49 -47 -117 -47h-2zM680 985q-67 0 -112 46q-52 53 -52 149q0 136 90 258q81 113 190 176
l43 -47q-37 -41 -69 -90q-51 -84 -51 -148q0 -8 8 -12q2 -2 7 -3l7 -3q109 -32 109 -158q0 -72 -51 -121q-49 -47 -117 -47h-2z" />
    <glyph glyph-name="quotedblright" unicode="&#x201d;" horiz-adv-x="962" 
d="M282 1606q67 0 112 -46q52 -53 52 -149q0 -137 -90 -258q-82 -113 -191 -176l-43 47q38 40 70 90q51 83 51 148q0 7 -8 12q-3 1 -7 3l-7 3q-109 32 -109 158q0 72 51 121q49 47 117 47h2zM702 1606q67 0 112 -46q52 -53 52 -149q0 -137 -90 -258q-82 -113 -191 -176
l-43 47q38 40 70 90q51 83 51 148q0 7 -8 12q-3 1 -8 3l-7 3q-108 32 -108 158q0 72 51 121q49 47 117 47h2z" />
    <glyph glyph-name="ellipsis" unicode="&#x2026;" horiz-adv-x="2048" 
d="M343 324q74 0 125 -51t51 -123q0 -170 -178 -170q-74 0 -127 48q-53 50 -53 122q0 71 53 123q53 51 127 51h2zM1027 324q74 0 125 -51t51 -123q0 -170 -178 -170q-74 0 -127 48q-53 50 -53 122q0 71 53 123q53 51 127 51h2zM1711 324q74 0 125 -51t51 -123
q0 -170 -178 -170q-74 0 -127 48q-53 50 -53 122q0 71 53 123q53 51 127 51h2z" />
    <glyph glyph-name="ugrave" horiz-adv-x="582" 
 />
    <glyph glyph-name="uacute" horiz-adv-x="580" 
 />
    <glyph glyph-name="yacute" horiz-adv-x="629" 
 />
  </font>
</defs>
</svg>
